ISO-10303-21;
HEADER;
/* Generated by software containing ST-Developer
 * from STEP Tools, Inc. (www.steptools.com) 
 */
/* OPTION: using custom renumber hook */

FILE_DESCRIPTION(
/* description */ ('STEP AP242 Edition 2',
'CAx-IF Rec.Pracs.---Representation and Presentation of Product Manufa
cturing Information (PMI)---4.0---2014-10-13',
'CAx-IF Rec.Pracs.---3D Tessellated Geometry---0.4---2014-09-14','2;1',
'CAx-IF Rec.Pracs.---User Defined Attributes---1.5---2016-08-15'),
/* implementation_level */ '2;1');

FILE_NAME(
/* name */ 'Part Studio 1 - SJato_Rear_Body_Mount',
/* time_stamp */ '2026-09-15T23:28:02Z',
/* author */ (''),
/* organization */ (''),
/* preprocessor_version */ 'ST-DEVELOPER v20',
/* originating_system */ 'ONSHAPE BY PTC INC, 1.220',
/* authorisation */ '  ');

FILE_SCHEMA (('AP242_MANAGED_MODEL_BASED_3D_ENGINEERING_MIM_LF { 1 0 10303 442 3 1 4 }'));
ENDSEC;

DATA;
#10=SHAPE_REPRESENTATION_RELATIONSHIP('','',#379,#11);
#11=ADVANCED_BREP_SHAPE_REPRESENTATION('',(#377),#639);
#12=CONICAL_SURFACE('',#417,0.0015,0.785398163397448);
#13=CONICAL_SURFACE('',#418,0.0015,0.785398163397448);
#14=CONICAL_SURFACE('',#423,0.0034,0.785398163397448);
#15=CONICAL_SURFACE('',#424,0.0034,0.785398163397448);
#16=LINE('',#549,#38);
#17=LINE('',#552,#39);
#18=LINE('',#554,#40);
#19=LINE('',#556,#41);
#20=LINE('',#558,#42);
#21=LINE('',#560,#43);
#22=LINE('',#562,#44);
#23=LINE('',#564,#45);
#24=LINE('',#566,#46);
#25=LINE('',#568,#47);
#26=LINE('',#572,#48);
#27=LINE('',#576,#49);
#28=LINE('',#578,#50);
#29=LINE('',#580,#51);
#30=LINE('',#584,#52);
#31=LINE('',#588,#53);
#32=LINE('',#590,#54);
#33=LINE('',#592,#55);
#34=LINE('',#596,#56);
#35=LINE('',#600,#57);
#36=LINE('',#602,#58);
#37=LINE('',#604,#59);
#38=VECTOR('',#441,1.);
#39=VECTOR('',#442,1.);
#40=VECTOR('',#443,1.);
#41=VECTOR('',#444,1.);
#42=VECTOR('',#447,1.);
#43=VECTOR('',#448,1.);
#44=VECTOR('',#449,1.);
#45=VECTOR('',#452,1.);
#46=VECTOR('',#453,1.);
#47=VECTOR('',#454,1.);
#48=VECTOR('',#459,1.);
#49=VECTOR('',#464,1.);
#50=VECTOR('',#465,1.);
#51=VECTOR('',#466,1.);
#52=VECTOR('',#471,1.);
#53=VECTOR('',#476,1.);
#54=VECTOR('',#477,1.);
#55=VECTOR('',#478,1.);
#56=VECTOR('',#483,1.);
#57=VECTOR('',#488,1.);
#58=VECTOR('',#489,1.);
#59=VECTOR('',#490,1.);
#60=PLANE('',#387);
#61=PLANE('',#388);
#62=PLANE('',#389);
#63=PLANE('',#393);
#64=PLANE('',#397);
#65=PLANE('',#401);
#66=PLANE('',#411);
#67=PLANE('',#412);
#68=ORIENTED_EDGE('',*,*,#156,.T.);
#69=ORIENTED_EDGE('',*,*,#157,.T.);
#70=ORIENTED_EDGE('',*,*,#158,.T.);
#71=ORIENTED_EDGE('',*,*,#159,.T.);
#72=ORIENTED_EDGE('',*,*,#160,.F.);
#73=ORIENTED_EDGE('',*,*,#161,.F.);
#74=ORIENTED_EDGE('',*,*,#162,.T.);
#75=ORIENTED_EDGE('',*,*,#163,.T.);
#76=ORIENTED_EDGE('',*,*,#164,.T.);
#77=ORIENTED_EDGE('',*,*,#165,.F.);
#78=ORIENTED_EDGE('',*,*,#166,.F.);
#79=ORIENTED_EDGE('',*,*,#161,.T.);
#80=ORIENTED_EDGE('',*,*,#167,.T.);
#81=ORIENTED_EDGE('',*,*,#168,.F.);
#82=ORIENTED_EDGE('',*,*,#169,.F.);
#83=ORIENTED_EDGE('',*,*,#165,.T.);
#84=ORIENTED_EDGE('',*,*,#170,.T.);
#85=ORIENTED_EDGE('',*,*,#171,.F.);
#86=ORIENTED_EDGE('',*,*,#172,.F.);
#87=ORIENTED_EDGE('',*,*,#168,.T.);
#88=ORIENTED_EDGE('',*,*,#173,.F.);
#89=ORIENTED_EDGE('',*,*,#174,.F.);
#90=ORIENTED_EDGE('',*,*,#175,.T.);
#91=ORIENTED_EDGE('',*,*,#171,.T.);
#92=ORIENTED_EDGE('',*,*,#176,.T.);
#93=ORIENTED_EDGE('',*,*,#177,.F.);
#94=ORIENTED_EDGE('',*,*,#178,.F.);
#95=ORIENTED_EDGE('',*,*,#174,.T.);
#96=ORIENTED_EDGE('',*,*,#179,.F.);
#97=ORIENTED_EDGE('',*,*,#180,.F.);
#98=ORIENTED_EDGE('',*,*,#181,.T.);
#99=ORIENTED_EDGE('',*,*,#177,.T.);
#100=ORIENTED_EDGE('',*,*,#182,.T.);
#101=ORIENTED_EDGE('',*,*,#183,.F.);
#102=ORIENTED_EDGE('',*,*,#184,.F.);
#103=ORIENTED_EDGE('',*,*,#180,.T.);
#104=ORIENTED_EDGE('',*,*,#185,.F.);
#105=ORIENTED_EDGE('',*,*,#186,.F.);
#106=ORIENTED_EDGE('',*,*,#187,.T.);
#107=ORIENTED_EDGE('',*,*,#183,.T.);
#108=ORIENTED_EDGE('',*,*,#188,.T.);
#109=ORIENTED_EDGE('',*,*,#189,.T.);
#110=ORIENTED_EDGE('',*,*,#190,.T.);
#111=ORIENTED_EDGE('',*,*,#191,.T.);
#112=ORIENTED_EDGE('',*,*,#192,.T.);
#113=ORIENTED_EDGE('',*,*,#163,.F.);
#114=ORIENTED_EDGE('',*,*,#193,.F.);
#115=ORIENTED_EDGE('',*,*,#186,.T.);
#116=ORIENTED_EDGE('',*,*,#162,.F.);
#117=ORIENTED_EDGE('',*,*,#166,.T.);
#118=ORIENTED_EDGE('',*,*,#169,.T.);
#119=ORIENTED_EDGE('',*,*,#172,.T.);
#120=ORIENTED_EDGE('',*,*,#175,.F.);
#121=ORIENTED_EDGE('',*,*,#178,.T.);
#122=ORIENTED_EDGE('',*,*,#181,.F.);
#123=ORIENTED_EDGE('',*,*,#184,.T.);
#124=ORIENTED_EDGE('',*,*,#187,.F.);
#125=ORIENTED_EDGE('',*,*,#193,.T.);
#126=ORIENTED_EDGE('',*,*,#157,.F.);
#127=ORIENTED_EDGE('',*,*,#191,.F.);
#128=ORIENTED_EDGE('',*,*,#189,.F.);
#129=ORIENTED_EDGE('',*,*,#159,.F.);
#130=ORIENTED_EDGE('',*,*,#194,.F.);
#131=ORIENTED_EDGE('',*,*,#195,.F.);
#132=ORIENTED_EDGE('',*,*,#196,.F.);
#133=ORIENTED_EDGE('',*,*,#197,.F.);
#134=ORIENTED_EDGE('',*,*,#160,.T.);
#135=ORIENTED_EDGE('',*,*,#192,.F.);
#136=ORIENTED_EDGE('',*,*,#185,.T.);
#137=ORIENTED_EDGE('',*,*,#182,.F.);
#138=ORIENTED_EDGE('',*,*,#179,.T.);
#139=ORIENTED_EDGE('',*,*,#176,.F.);
#140=ORIENTED_EDGE('',*,*,#173,.T.);
#141=ORIENTED_EDGE('',*,*,#170,.F.);
#142=ORIENTED_EDGE('',*,*,#167,.F.);
#143=ORIENTED_EDGE('',*,*,#164,.F.);
#144=ORIENTED_EDGE('',*,*,#197,.T.);
#145=ORIENTED_EDGE('',*,*,#188,.F.);
#146=ORIENTED_EDGE('',*,*,#196,.T.);
#147=ORIENTED_EDGE('',*,*,#190,.F.);
#148=ORIENTED_EDGE('',*,*,#198,.T.);
#149=ORIENTED_EDGE('',*,*,#195,.T.);
#150=ORIENTED_EDGE('',*,*,#199,.T.);
#151=ORIENTED_EDGE('',*,*,#194,.T.);
#152=ORIENTED_EDGE('',*,*,#158,.F.);
#153=ORIENTED_EDGE('',*,*,#198,.F.);
#154=ORIENTED_EDGE('',*,*,#156,.F.);
#155=ORIENTED_EDGE('',*,*,#199,.F.);
#156=EDGE_CURVE('',#200,#200,#234,.T.);
#157=EDGE_CURVE('',#201,#201,#235,.T.);
#158=EDGE_CURVE('',#202,#202,#236,.T.);
#159=EDGE_CURVE('',#203,#203,#237,.T.);
#160=EDGE_CURVE('',#204,#205,#16,.T.);
#161=EDGE_CURVE('',#206,#204,#17,.T.);
#162=EDGE_CURVE('',#206,#207,#18,.T.);
#163=EDGE_CURVE('',#207,#205,#19,.T.);
#164=EDGE_CURVE('',#204,#208,#20,.T.);
#165=EDGE_CURVE('',#209,#208,#21,.T.);
#166=EDGE_CURVE('',#206,#209,#22,.T.);
#167=EDGE_CURVE('',#208,#210,#23,.T.);
#168=EDGE_CURVE('',#211,#210,#24,.T.);
#169=EDGE_CURVE('',#209,#211,#25,.T.);
#170=EDGE_CURVE('',#210,#212,#238,.T.);
#171=EDGE_CURVE('',#213,#212,#26,.T.);
#172=EDGE_CURVE('',#211,#213,#239,.T.);
#173=EDGE_CURVE('',#214,#212,#27,.T.);
#174=EDGE_CURVE('',#215,#214,#28,.T.);
#175=EDGE_CURVE('',#215,#213,#29,.T.);
#176=EDGE_CURVE('',#214,#216,#240,.T.);
#177=EDGE_CURVE('',#217,#216,#30,.T.);
#178=EDGE_CURVE('',#215,#217,#241,.T.);
#179=EDGE_CURVE('',#218,#216,#31,.T.);
#180=EDGE_CURVE('',#219,#218,#32,.T.);
#181=EDGE_CURVE('',#219,#217,#33,.T.);
#182=EDGE_CURVE('',#218,#220,#242,.T.);
#183=EDGE_CURVE('',#221,#220,#34,.T.);
#184=EDGE_CURVE('',#219,#221,#243,.T.);
#185=EDGE_CURVE('',#222,#220,#35,.T.);
#186=EDGE_CURVE('',#223,#222,#36,.T.);
#187=EDGE_CURVE('',#223,#221,#37,.T.);
#188=EDGE_CURVE('',#224,#224,#244,.F.);
#189=EDGE_CURVE('',#225,#225,#245,.T.);
#190=EDGE_CURVE('',#226,#226,#246,.F.);
#191=EDGE_CURVE('',#227,#227,#247,.T.);
#192=EDGE_CURVE('',#222,#205,#248,.T.);
#193=EDGE_CURVE('',#223,#207,#249,.T.);
#194=EDGE_CURVE('',#228,#228,#250,.T.);
#195=EDGE_CURVE('',#229,#229,#251,.T.);
#196=EDGE_CURVE('',#230,#230,#252,.T.);
#197=EDGE_CURVE('',#231,#231,#253,.T.);
#198=EDGE_CURVE('',#232,#232,#254,.F.);
#199=EDGE_CURVE('',#233,#233,#255,.F.);
#200=VERTEX_POINT('',#540);
#201=VERTEX_POINT('',#542);
#202=VERTEX_POINT('',#545);
#203=VERTEX_POINT('',#547);
#204=VERTEX_POINT('',#550);
#205=VERTEX_POINT('',#551);
#206=VERTEX_POINT('',#553);
#207=VERTEX_POINT('',#555);
#208=VERTEX_POINT('',#559);
#209=VERTEX_POINT('',#561);
#210=VERTEX_POINT('',#565);
#211=VERTEX_POINT('',#567);
#212=VERTEX_POINT('',#571);
#213=VERTEX_POINT('',#573);
#214=VERTEX_POINT('',#577);
#215=VERTEX_POINT('',#579);
#216=VERTEX_POINT('',#583);
#217=VERTEX_POINT('',#585);
#218=VERTEX_POINT('',#589);
#219=VERTEX_POINT('',#591);
#220=VERTEX_POINT('',#595);
#221=VERTEX_POINT('',#597);
#222=VERTEX_POINT('',#601);
#223=VERTEX_POINT('',#603);
#224=VERTEX_POINT('',#607);
#225=VERTEX_POINT('',#609);
#226=VERTEX_POINT('',#612);
#227=VERTEX_POINT('',#614);
#228=VERTEX_POINT('',#621);
#229=VERTEX_POINT('',#623);
#230=VERTEX_POINT('',#625);
#231=VERTEX_POINT('',#627);
#232=VERTEX_POINT('',#632);
#233=VERTEX_POINT('',#635);
#234=CIRCLE('',#382,0.0014);
#235=CIRCLE('',#383,0.0014);
#236=CIRCLE('',#385,0.0014);
#237=CIRCLE('',#386,0.0014);
#238=CIRCLE('',#391,0.006);
#239=CIRCLE('',#392,0.006);
#240=CIRCLE('',#395,0.006);
#241=CIRCLE('',#396,0.006);
#242=CIRCLE('',#399,0.006);
#243=CIRCLE('',#400,0.006);
#244=CIRCLE('',#403,0.002);
#245=CIRCLE('',#404,0.002);
#246=CIRCLE('',#406,0.002);
#247=CIRCLE('',#407,0.002);
#248=CIRCLE('',#409,0.006);
#249=CIRCLE('',#410,0.006);
#250=CIRCLE('',#413,0.00325);
#251=CIRCLE('',#414,0.00325);
#252=CIRCLE('',#415,0.004);
#253=CIRCLE('',#416,0.004);
#254=CIRCLE('',#420,0.00325);
#255=CIRCLE('',#422,0.00325);
#256=EDGE_LOOP('',(#68));
#257=EDGE_LOOP('',(#69));
#258=EDGE_LOOP('',(#70));
#259=EDGE_LOOP('',(#71));
#260=EDGE_LOOP('',(#72,#73,#74,#75));
#261=EDGE_LOOP('',(#76,#77,#78,#79));
#262=EDGE_LOOP('',(#80,#81,#82,#83));
#263=EDGE_LOOP('',(#84,#85,#86,#87));
#264=EDGE_LOOP('',(#88,#89,#90,#91));
#265=EDGE_LOOP('',(#92,#93,#94,#95));
#266=EDGE_LOOP('',(#96,#97,#98,#99));
#267=EDGE_LOOP('',(#100,#101,#102,#103));
#268=EDGE_LOOP('',(#104,#105,#106,#107));
#269=EDGE_LOOP('',(#108));
#270=EDGE_LOOP('',(#109));
#271=EDGE_LOOP('',(#110));
#272=EDGE_LOOP('',(#111));
#273=EDGE_LOOP('',(#112,#113,#114,#115));
#274=EDGE_LOOP('',(#116,#117,#118,#119,#120,#121,#122,#123,#124,#125));
#275=EDGE_LOOP('',(#126));
#276=EDGE_LOOP('',(#127));
#277=EDGE_LOOP('',(#128));
#278=EDGE_LOOP('',(#129));
#279=EDGE_LOOP('',(#130));
#280=EDGE_LOOP('',(#131));
#281=EDGE_LOOP('',(#132));
#282=EDGE_LOOP('',(#133));
#283=EDGE_LOOP('',(#134,#135,#136,#137,#138,#139,#140,#141,#142,#143));
#284=EDGE_LOOP('',(#144));
#285=EDGE_LOOP('',(#145));
#286=EDGE_LOOP('',(#146));
#287=EDGE_LOOP('',(#147));
#288=EDGE_LOOP('',(#148));
#289=EDGE_LOOP('',(#149));
#290=EDGE_LOOP('',(#150));
#291=EDGE_LOOP('',(#151));
#292=EDGE_LOOP('',(#152));
#293=EDGE_LOOP('',(#153));
#294=EDGE_LOOP('',(#154));
#295=EDGE_LOOP('',(#155));
#296=FACE_BOUND('',#256,.T.);
#297=FACE_BOUND('',#257,.T.);
#298=FACE_BOUND('',#258,.T.);
#299=FACE_BOUND('',#259,.T.);
#300=FACE_BOUND('',#260,.T.);
#301=FACE_BOUND('',#261,.T.);
#302=FACE_BOUND('',#262,.T.);
#303=FACE_BOUND('',#263,.T.);
#304=FACE_BOUND('',#264,.T.);
#305=FACE_BOUND('',#265,.T.);
#306=FACE_BOUND('',#266,.T.);
#307=FACE_BOUND('',#267,.T.);
#308=FACE_BOUND('',#268,.T.);
#309=FACE_BOUND('',#269,.T.);
#310=FACE_BOUND('',#270,.T.);
#311=FACE_BOUND('',#271,.T.);
#312=FACE_BOUND('',#272,.T.);
#313=FACE_BOUND('',#273,.T.);
#314=FACE_BOUND('',#274,.T.);
#315=FACE_BOUND('',#275,.T.);
#316=FACE_BOUND('',#276,.T.);
#317=FACE_BOUND('',#277,.T.);
#318=FACE_BOUND('',#278,.T.);
#319=FACE_BOUND('',#279,.T.);
#320=FACE_BOUND('',#280,.T.);
#321=FACE_BOUND('',#281,.T.);
#322=FACE_BOUND('',#282,.T.);
#323=FACE_BOUND('',#283,.T.);
#324=FACE_BOUND('',#284,.T.);
#325=FACE_BOUND('',#285,.T.);
#326=FACE_BOUND('',#286,.T.);
#327=FACE_BOUND('',#287,.T.);
#328=FACE_BOUND('',#288,.T.);
#329=FACE_BOUND('',#289,.T.);
#330=FACE_BOUND('',#290,.T.);
#331=FACE_BOUND('',#291,.T.);
#332=FACE_BOUND('',#292,.T.);
#333=FACE_BOUND('',#293,.T.);
#334=FACE_BOUND('',#294,.T.);
#335=FACE_BOUND('',#295,.T.);
#336=CYLINDRICAL_SURFACE('',#381,0.0014);
#337=CYLINDRICAL_SURFACE('',#384,0.0014);
#338=CYLINDRICAL_SURFACE('',#390,0.006);
#339=CYLINDRICAL_SURFACE('',#394,0.006);
#340=CYLINDRICAL_SURFACE('',#398,0.006);
#341=CYLINDRICAL_SURFACE('',#402,0.002);
#342=CYLINDRICAL_SURFACE('',#405,0.002);
#343=CYLINDRICAL_SURFACE('',#408,0.006);
#344=CYLINDRICAL_SURFACE('',#419,0.00325);
#345=CYLINDRICAL_SURFACE('',#421,0.00325);
#346=ADVANCED_FACE('',(#296,#297),#336,.F.);
#347=ADVANCED_FACE('',(#298,#299),#337,.F.);
#348=ADVANCED_FACE('',(#300),#60,.T.);
#349=ADVANCED_FACE('',(#301),#61,.F.);
#350=ADVANCED_FACE('',(#302),#62,.F.);
#351=ADVANCED_FACE('',(#303),#338,.T.);
#352=ADVANCED_FACE('',(#304),#63,.T.);
#353=ADVANCED_FACE('',(#305),#339,.T.);
#354=ADVANCED_FACE('',(#306),#64,.T.);
#355=ADVANCED_FACE('',(#307),#340,.T.);
#356=ADVANCED_FACE('',(#308),#65,.T.);
#357=ADVANCED_FACE('',(#309,#310),#341,.F.);
#358=ADVANCED_FACE('',(#311,#312),#342,.F.);
#359=ADVANCED_FACE('',(#313),#343,.T.);
#360=ADVANCED_FACE('',(#314,#315,#316,#317,#318),#66,.T.);
#361=ADVANCED_FACE('',(#319,#320,#321,#322,#323),#67,.F.);
#362=ADVANCED_FACE('',(#324,#325),#12,.T.);
#363=ADVANCED_FACE('',(#326,#327),#13,.T.);
#364=ADVANCED_FACE('',(#328,#329),#344,.F.);
#365=ADVANCED_FACE('',(#330,#331),#345,.F.);
#366=ADVANCED_FACE('',(#332,#333),#14,.F.);
#367=ADVANCED_FACE('',(#334,#335),#15,.F.);
#368=CLOSED_SHELL('',(#346,#347,#348,#349,#350,#351,#352,#353,#354,#355,
#356,#357,#358,#359,#360,#361,#362,#363,#364,#365,#366,#367));
#369=STYLED_ITEM('',(#370),#377);
#370=PRESENTATION_STYLE_ASSIGNMENT((#371));
#371=SURFACE_STYLE_USAGE(.BOTH.,#372);
#372=SURFACE_SIDE_STYLE('',(#373));
#373=SURFACE_STYLE_FILL_AREA(#374);
#374=FILL_AREA_STYLE('',(#375));
#375=FILL_AREA_STYLE_COLOUR('',#376);
#376=COLOUR_RGB('',0.615686274509804,0.811764705882353,0.929411764705882);
#377=MANIFOLD_SOLID_BREP('SJato_Rear_Body_Mount',#368);
#378=SHAPE_DEFINITION_REPRESENTATION(#644,#379);
#379=SHAPE_REPRESENTATION('SJato_Rear_Body_Mount',(#380),#639);
#380=AXIS2_PLACEMENT_3D('',#537,#425,#426);
#381=AXIS2_PLACEMENT_3D('',#538,#427,#428);
#382=AXIS2_PLACEMENT_3D('',#539,#429,#430);
#383=AXIS2_PLACEMENT_3D('',#541,#431,#432);
#384=AXIS2_PLACEMENT_3D('',#543,#433,#434);
#385=AXIS2_PLACEMENT_3D('',#544,#435,#436);
#386=AXIS2_PLACEMENT_3D('',#546,#437,#438);
#387=AXIS2_PLACEMENT_3D('',#548,#439,#440);
#388=AXIS2_PLACEMENT_3D('',#557,#445,#446);
#389=AXIS2_PLACEMENT_3D('',#563,#450,#451);
#390=AXIS2_PLACEMENT_3D('',#569,#455,#456);
#391=AXIS2_PLACEMENT_3D('',#570,#457,#458);
#392=AXIS2_PLACEMENT_3D('',#574,#460,#461);
#393=AXIS2_PLACEMENT_3D('',#575,#462,#463);
#394=AXIS2_PLACEMENT_3D('',#581,#467,#468);
#395=AXIS2_PLACEMENT_3D('',#582,#469,#470);
#396=AXIS2_PLACEMENT_3D('',#586,#472,#473);
#397=AXIS2_PLACEMENT_3D('',#587,#474,#475);
#398=AXIS2_PLACEMENT_3D('',#593,#479,#480);
#399=AXIS2_PLACEMENT_3D('',#594,#481,#482);
#400=AXIS2_PLACEMENT_3D('',#598,#484,#485);
#401=AXIS2_PLACEMENT_3D('',#599,#486,#487);
#402=AXIS2_PLACEMENT_3D('',#605,#491,#492);
#403=AXIS2_PLACEMENT_3D('',#606,#493,#494);
#404=AXIS2_PLACEMENT_3D('',#608,#495,#496);
#405=AXIS2_PLACEMENT_3D('',#610,#497,#498);
#406=AXIS2_PLACEMENT_3D('',#611,#499,#500);
#407=AXIS2_PLACEMENT_3D('',#613,#501,#502);
#408=AXIS2_PLACEMENT_3D('',#615,#503,#504);
#409=AXIS2_PLACEMENT_3D('',#616,#505,#506);
#410=AXIS2_PLACEMENT_3D('',#617,#507,#508);
#411=AXIS2_PLACEMENT_3D('',#618,#509,#510);
#412=AXIS2_PLACEMENT_3D('',#619,#511,#512);
#413=AXIS2_PLACEMENT_3D('',#620,#513,#514);
#414=AXIS2_PLACEMENT_3D('',#622,#515,#516);
#415=AXIS2_PLACEMENT_3D('',#624,#517,#518);
#416=AXIS2_PLACEMENT_3D('',#626,#519,#520);
#417=AXIS2_PLACEMENT_3D('',#628,#521,#522);
#418=AXIS2_PLACEMENT_3D('',#629,#523,#524);
#419=AXIS2_PLACEMENT_3D('',#630,#525,#526);
#420=AXIS2_PLACEMENT_3D('',#631,#527,#528);
#421=AXIS2_PLACEMENT_3D('',#633,#529,#530);
#422=AXIS2_PLACEMENT_3D('',#634,#531,#532);
#423=AXIS2_PLACEMENT_3D('',#636,#533,#534);
#424=AXIS2_PLACEMENT_3D('',#637,#535,#536);
#425=DIRECTION('',(0.,0.,1.));
#426=DIRECTION('',(1.,0.,0.));
#427=DIRECTION('',(0.,0.,-1.));
#428=DIRECTION('',(-1.,0.,0.));
#429=DIRECTION('',(0.,0.,-1.));
#430=DIRECTION('',(-1.,0.,0.));
#431=DIRECTION('',(0.,0.,1.));
#432=DIRECTION('',(1.,0.,0.));
#433=DIRECTION('',(0.,0.,-1.));
#434=DIRECTION('',(-1.,0.,0.));
#435=DIRECTION('',(0.,0.,-1.));
#436=DIRECTION('',(-1.,0.,0.));
#437=DIRECTION('',(0.,0.,1.));
#438=DIRECTION('',(1.,0.,0.));
#439=DIRECTION('',(0.940887411868727,-0.338719468272742,0.));
#440=DIRECTION('',(0.338719468272742,0.940887411868727,0.));
#441=DIRECTION('',(-0.338719468272742,-0.940887411868727,0.));
#442=DIRECTION('',(0.,0.,-1.));
#443=DIRECTION('',(-0.338719468272742,-0.940887411868727,0.));
#444=DIRECTION('',(0.,0.,-1.));
#445=DIRECTION('',(0.,1.,0.));
#446=DIRECTION('',(0.,0.,1.));
#447=DIRECTION('',(1.,0.,0.));
#448=DIRECTION('',(0.,0.,-1.));
#449=DIRECTION('',(1.,0.,0.));
#450=DIRECTION('',(0.940887411868727,0.338719468272742,0.));
#451=DIRECTION('',(-0.338719468272742,0.940887411868727,0.));
#452=DIRECTION('',(0.338719468272742,-0.940887411868727,0.));
#453=DIRECTION('',(0.,0.,-1.));
#454=DIRECTION('',(0.338719468272742,-0.940887411868727,0.));
#455=DIRECTION('',(0.,0.,-1.));
#456=DIRECTION('',(-1.,0.,0.));
#457=DIRECTION('',(0.,0.,1.));
#458=DIRECTION('',(1.,0.,0.));
#459=DIRECTION('',(0.,0.,-1.));
#460=DIRECTION('',(0.,0.,1.));
#461=DIRECTION('',(1.,0.,0.));
#462=DIRECTION('',(0.940887411868727,0.338719468272742,0.));
#463=DIRECTION('',(-0.338719468272742,0.940887411868727,0.));
#464=DIRECTION('',(0.338719468272742,-0.940887411868727,0.));
#465=DIRECTION('',(0.,0.,-1.));
#466=DIRECTION('',(0.338719468272742,-0.940887411868727,0.));
#467=DIRECTION('',(0.,0.,-1.));
#468=DIRECTION('',(-1.,0.,0.));
#469=DIRECTION('',(0.,0.,1.));
#470=DIRECTION('',(1.,0.,0.));
#471=DIRECTION('',(0.,0.,-1.));
#472=DIRECTION('',(0.,0.,1.));
#473=DIRECTION('',(1.,0.,0.));
#474=DIRECTION('',(0.,1.,0.));
#475=DIRECTION('',(0.,0.,1.));
#476=DIRECTION('',(1.,0.,0.));
#477=DIRECTION('',(0.,0.,-1.));
#478=DIRECTION('',(1.,0.,0.));
#479=DIRECTION('',(0.,0.,-1.));
#480=DIRECTION('',(-1.,0.,0.));
#481=DIRECTION('',(0.,0.,1.));
#482=DIRECTION('',(1.,0.,0.));
#483=DIRECTION('',(0.,0.,-1.));
#484=DIRECTION('',(0.,0.,1.));
#485=DIRECTION('',(1.,0.,0.));
#486=DIRECTION('',(-0.940887411868727,0.338719468272742,0.));
#487=DIRECTION('',(-0.338719468272742,-0.940887411868727,0.));
#488=DIRECTION('',(0.338719468272742,0.940887411868727,0.));
#489=DIRECTION('',(0.,0.,-1.));
#490=DIRECTION('',(0.338719468272742,0.940887411868727,0.));
#491=DIRECTION('',(0.,0.,-1.));
#492=DIRECTION('',(-1.,0.,0.));
#493=DIRECTION('',(0.,0.,1.));
#494=DIRECTION('',(1.,0.,0.));
#495=DIRECTION('',(0.,0.,1.));
#496=DIRECTION('',(1.,0.,0.));
#497=DIRECTION('',(0.,0.,-1.));
#498=DIRECTION('',(-1.,0.,0.));
#499=DIRECTION('',(0.,0.,1.));
#500=DIRECTION('',(1.,0.,0.));
#501=DIRECTION('',(0.,0.,1.));
#502=DIRECTION('',(1.,0.,0.));
#503=DIRECTION('',(0.,0.,-1.));
#504=DIRECTION('',(-1.,0.,0.));
#505=DIRECTION('',(0.,0.,1.));
#506=DIRECTION('',(1.,0.,0.));
#507=DIRECTION('',(0.,0.,1.));
#508=DIRECTION('',(1.,0.,0.));
#509=DIRECTION('',(0.,0.,1.));
#510=DIRECTION('',(1.,0.,0.));
#511=DIRECTION('',(0.,0.,1.));
#512=DIRECTION('',(1.,0.,0.));
#513=DIRECTION('',(0.,0.,-1.));
#514=DIRECTION('',(-1.,0.,0.));
#515=DIRECTION('',(0.,0.,-1.));
#516=DIRECTION('',(-1.,0.,0.));
#517=DIRECTION('',(0.,0.,-1.));
#518=DIRECTION('',(-1.,0.,0.));
#519=DIRECTION('',(0.,0.,-1.));
#520=DIRECTION('',(-1.,0.,0.));
#521=DIRECTION('',(0.,0.,1.));
#522=DIRECTION('',(1.,0.,0.));
#523=DIRECTION('',(0.,0.,1.));
#524=DIRECTION('',(1.,0.,0.));
#525=DIRECTION('',(0.,0.,-1.));
#526=DIRECTION('',(-1.,0.,0.));
#527=DIRECTION('',(0.,0.,-1.));
#528=DIRECTION('',(-1.,0.,0.));
#529=DIRECTION('',(0.,0.,-1.));
#530=DIRECTION('',(-1.,0.,0.));
#531=DIRECTION('',(0.,0.,-1.));
#532=DIRECTION('',(-1.,0.,0.));
#533=DIRECTION('',(0.,0.,-1.));
#534=DIRECTION('',(-1.,0.,0.));
#535=DIRECTION('',(0.,0.,-1.));
#536=DIRECTION('',(-1.,0.,0.));
#537=CARTESIAN_POINT('',(0.,0.,0.));
#538=CARTESIAN_POINT('',(-0.0215,-0.025,0.005));
#539=CARTESIAN_POINT('',(-0.0215,-0.025,0.0025));
#540=CARTESIAN_POINT('',(-0.0229,-0.025,0.0025));
#541=CARTESIAN_POINT('',(-0.0215,-0.025,0.005));
#542=CARTESIAN_POINT('',(-0.0201,-0.025,0.005));
#543=CARTESIAN_POINT('',(0.0215,-0.025,0.005));
#544=CARTESIAN_POINT('',(0.0215,-0.025,0.0025));
#545=CARTESIAN_POINT('',(0.0201,-0.025,0.0025));
#546=CARTESIAN_POINT('',(0.0215,-0.025,0.005));
#547=CARTESIAN_POINT('',(0.0229,-0.025,0.005));
#548=CARTESIAN_POINT('',(-0.0144088585030531,-0.0230161584048183,0.005));
#549=CARTESIAN_POINT('',(-0.0144088585030531,-0.0230161584048183,0.));
#550=CARTESIAN_POINT('',(-0.00828304147731852,-0.006,0.));
#551=CARTESIAN_POINT('',(-0.0158546755287877,-0.0270323168096365,0.));
#552=CARTESIAN_POINT('',(-0.00828304147731852,-0.006,0.005));
#553=CARTESIAN_POINT('',(-0.00828304147731852,-0.006,0.005));
#554=CARTESIAN_POINT('',(-0.0144088585030531,-0.0230161584048183,0.005));
#555=CARTESIAN_POINT('',(-0.0158546755287877,-0.0270323168096365,0.005));
#556=CARTESIAN_POINT('',(-0.0158546755287877,-0.0270323168096365,0.005));
#557=CARTESIAN_POINT('',(0.,-0.006,0.005));
#558=CARTESIAN_POINT('',(0.,-0.006,0.));
#559=CARTESIAN_POINT('',(0.00828304147731852,-0.006,0.));
#560=CARTESIAN_POINT('',(0.00828304147731852,-0.006,0.005));
#561=CARTESIAN_POINT('',(0.00828304147731852,-0.006,0.005));
#562=CARTESIAN_POINT('',(0.,-0.006,0.005));
#563=CARTESIAN_POINT('',(0.0144088585030531,-0.0230161584048183,0.005));
#564=CARTESIAN_POINT('',(0.0144088585030531,-0.0230161584048183,0.));
#565=CARTESIAN_POINT('',(0.0158546755287877,-0.0270323168096365,0.));
#566=CARTESIAN_POINT('',(0.0158546755287877,-0.0270323168096365,0.005));
#567=CARTESIAN_POINT('',(0.0158546755287877,-0.0270323168096365,0.005));
#568=CARTESIAN_POINT('',(0.0144088585030531,-0.0230161584048183,0.005));
#569=CARTESIAN_POINT('',(0.0215,-0.025,0.005));
#570=CARTESIAN_POINT('',(0.0215,-0.025,0.));
#571=CARTESIAN_POINT('',(0.0271453244712123,-0.0229676831903636,0.));
#572=CARTESIAN_POINT('',(0.0271453244712123,-0.0229676831903636,0.005));
#573=CARTESIAN_POINT('',(0.0271453244712123,-0.0229676831903636,0.005));
#574=CARTESIAN_POINT('',(0.0215,-0.025,0.005));
#575=CARTESIAN_POINT('',(0.0223584792613407,-0.00967089094072016,0.005));
#576=CARTESIAN_POINT('',(0.0223584792613407,-0.00967089094072016,0.));
#577=CARTESIAN_POINT('',(0.0181453244712124,0.00203231680963645,0.));
#578=CARTESIAN_POINT('',(0.0181453244712124,0.00203231680963645,0.005));
#579=CARTESIAN_POINT('',(0.0181453244712124,0.00203231680963645,0.005));
#580=CARTESIAN_POINT('',(0.0223584792613407,-0.00967089094072016,0.005));
#581=CARTESIAN_POINT('',(0.0125,2.16840434497101E-18,0.005));
#582=CARTESIAN_POINT('',(0.0125,2.16840434497101E-18,0.));
#583=CARTESIAN_POINT('',(0.00802786404500042,0.004,0.));
#584=CARTESIAN_POINT('',(0.00802786404500042,0.004,0.005));
#585=CARTESIAN_POINT('',(0.00802786404500042,0.004,0.005));
#586=CARTESIAN_POINT('',(0.0125,2.16840434497101E-18,0.005));
#587=CARTESIAN_POINT('',(0.,0.004,0.005));
#588=CARTESIAN_POINT('',(0.,0.004,0.));
#589=CARTESIAN_POINT('',(-0.00802786404500042,0.004,0.));
#590=CARTESIAN_POINT('',(-0.00802786404500042,0.004,0.005));
#591=CARTESIAN_POINT('',(-0.00802786404500042,0.004,0.005));
#592=CARTESIAN_POINT('',(0.,0.004,0.005));
#593=CARTESIAN_POINT('',(-0.0125,-8.67361737988404E-19,0.005));
#594=CARTESIAN_POINT('',(-0.0125,-8.67361737988404E-19,0.));
#595=CARTESIAN_POINT('',(-0.0181453244712124,0.00203231680963645,0.));
#596=CARTESIAN_POINT('',(-0.0181453244712124,0.00203231680963645,0.005));
#597=CARTESIAN_POINT('',(-0.0181453244712124,0.00203231680963645,0.005));
#598=CARTESIAN_POINT('',(-0.0125,-8.67361737988404E-19,0.005));
#599=CARTESIAN_POINT('',(-0.0223584792613407,-0.00967089094072016,0.005));
#600=CARTESIAN_POINT('',(-0.0223584792613407,-0.00967089094072016,0.));
#601=CARTESIAN_POINT('',(-0.0271453244712123,-0.0229676831903636,0.));
#602=CARTESIAN_POINT('',(-0.0271453244712123,-0.0229676831903636,0.005));
#603=CARTESIAN_POINT('',(-0.0271453244712123,-0.0229676831903636,0.005));
#604=CARTESIAN_POINT('',(-0.0223584792613407,-0.00967089094072016,0.005));
#605=CARTESIAN_POINT('',(0.0125,4.71489017671731E-18,0.005));
#606=CARTESIAN_POINT('',(0.0125,4.46996081688784E-18,-0.002));
#607=CARTESIAN_POINT('',(0.0145,4.46996081688784E-18,-0.002));
#608=CARTESIAN_POINT('',(0.0125,4.71489017671731E-18,0.005));
#609=CARTESIAN_POINT('',(0.0145,4.71489017671731E-18,0.005));
#610=CARTESIAN_POINT('',(-0.0125,1.22464679914735E-19,0.005));
#611=CARTESIAN_POINT('',(-0.0125,-1.22464679914735E-19,-0.002));
#612=CARTESIAN_POINT('',(-0.0105,-1.22464679914735E-19,-0.002));
#613=CARTESIAN_POINT('',(-0.0125,1.22464679914735E-19,0.005));
#614=CARTESIAN_POINT('',(-0.0105,1.22464679914735E-19,0.005));
#615=CARTESIAN_POINT('',(-0.0215,-0.025,0.005));
#616=CARTESIAN_POINT('',(-0.0215,-0.025,0.));
#617=CARTESIAN_POINT('',(-0.0215,-0.025,0.005));
#618=CARTESIAN_POINT('',(3.46944695195361E-18,-0.0125,0.005));
#619=CARTESIAN_POINT('',(3.46944695195361E-18,-0.0125,0.));
#620=CARTESIAN_POINT('',(-0.0215,-0.025,0.));
#621=CARTESIAN_POINT('',(-0.02475,-0.025,0.));
#622=CARTESIAN_POINT('',(0.0215,-0.025,0.));
#623=CARTESIAN_POINT('',(0.01825,-0.025,0.));
#624=CARTESIAN_POINT('',(-0.0125,-1.22464679914735E-19,0.));
#625=CARTESIAN_POINT('',(-0.0165,-1.22464679914735E-19,0.));
#626=CARTESIAN_POINT('',(0.0125,4.46996081688784E-18,0.));
#627=CARTESIAN_POINT('',(0.0085,4.46996081688784E-18,0.));
#628=CARTESIAN_POINT('',(0.0125,4.46996081688784E-18,-0.0025));
#629=CARTESIAN_POINT('',(-0.0125,-1.22464679914735E-19,-0.0025));
#630=CARTESIAN_POINT('',(0.0215,-0.025,0.0005));
#631=CARTESIAN_POINT('',(0.0215,-0.025,0.00065));
#632=CARTESIAN_POINT('',(0.01825,-0.025,0.00065));
#633=CARTESIAN_POINT('',(-0.0215,-0.025,0.0005));
#634=CARTESIAN_POINT('',(-0.0215,-0.025,0.00065));
#635=CARTESIAN_POINT('',(-0.02475,-0.025,0.00065));
#636=CARTESIAN_POINT('',(0.0215,-0.025,0.0005));
#637=CARTESIAN_POINT('',(-0.0215,-0.025,0.0005));
#638=MECHANICAL_DESIGN_GEOMETRIC_PRESENTATION_REPRESENTATION('',(#369),
#639);
#639=(
GEOMETRIC_REPRESENTATION_CONTEXT(3)
GLOBAL_UNCERTAINTY_ASSIGNED_CONTEXT((#640))
GLOBAL_UNIT_ASSIGNED_CONTEXT((#643,#642,#641))
REPRESENTATION_CONTEXT('SJato_Rear_Body_Mount',
'TOP_LEVEL_ASSEMBLY_PART')
);
#640=UNCERTAINTY_MEASURE_WITH_UNIT(LENGTH_MEASURE(1.E-8),#643,
'DISTANCE_ACCURACY_VALUE','Maximum Tolerance applied to model');
#641=(
NAMED_UNIT(*)
SI_UNIT($,.STERADIAN.)
SOLID_ANGLE_UNIT()
);
#642=(
NAMED_UNIT(*)
PLANE_ANGLE_UNIT()
SI_UNIT($,.RADIAN.)
);
#643=(
LENGTH_UNIT()
NAMED_UNIT(*)
SI_UNIT($,.METRE.)
);
#644=PRODUCT_DEFINITION_SHAPE('','',#645);
#645=PRODUCT_DEFINITION('','',#647,#646);
#646=PRODUCT_DEFINITION_CONTEXT('',#653,'design');
#647=PRODUCT_DEFINITION_FORMATION_WITH_SPECIFIED_SOURCE('','',#649,
 .NOT_KNOWN.);
#648=PRODUCT_RELATED_PRODUCT_CATEGORY('','',(#649));
#649=PRODUCT('SJato_Rear_Body_Mount','SJato_Rear_Body_Mount',
'SJato_Rear_Body_Mount',(#651));
#650=PRODUCT_CATEGORY('','');
#651=PRODUCT_CONTEXT('',#653,'mechanical');
#652=APPLICATION_PROTOCOL_DEFINITION('international standard',
'ap242_managed_model_based_3d_engineering',2020,#653);
#653=APPLICATION_CONTEXT('managed model based 3d engineering');
ENDSEC;
END-ISO-10303-21;
