ISO-10303-21;
HEADER;
/* Generated by software containing ST-Developer
 * from STEP Tools, Inc. (www.steptools.com) 
 */
/* OPTION: using custom renumber hook */

FILE_DESCRIPTION(
/* description */ ('STEP AP242 Edition 2',
'CAx-IF Rec.Pracs.---Representation and Presentation of Product Manufa
cturing Information (PMI)---4.0---2014-10-13',
'CAx-IF Rec.Pracs.---3D Tessellated Geometry---0.4---2014-09-14','2;1',
'CAx-IF Rec.Pracs.---User Defined Attributes---1.5---2016-08-15'),
/* implementation_level */ '2;1');

FILE_NAME(
/* name */ 'Part Studio 1 - SJato_Front_Body_Mount',
/* time_stamp */ '2026-09-15T23:29:11Z',
/* author */ (''),
/* organization */ (''),
/* preprocessor_version */ 'ST-DEVELOPER v20',
/* originating_system */ 'ONSHAPE BY PTC INC, 1.220',
/* authorisation */ '  ');

FILE_SCHEMA (('AP242_MANAGED_MODEL_BASED_3D_ENGINEERING_MIM_LF { 1 0 10303 442 3 1 4 }'));
ENDSEC;

DATA;
#10=SHAPE_REPRESENTATION_RELATIONSHIP('','',#335,#11);
#11=ADVANCED_BREP_SHAPE_REPRESENTATION('',(#333),#559);
#12=CONICAL_SURFACE('',#371,0.0015,0.785398163397448);
#13=CONICAL_SURFACE('',#372,0.0015,0.785398163397448);
#14=CIRCLE('',#341,0.00499999999999992);
#15=CIRCLE('',#342,0.00499999999999992);
#16=CIRCLE('',#345,0.005);
#17=CIRCLE('',#346,0.005);
#18=CIRCLE('',#349,0.005);
#19=CIRCLE('',#350,0.005);
#20=CIRCLE('',#353,0.002);
#21=CIRCLE('',#354,0.002);
#22=CIRCLE('',#356,0.002);
#23=CIRCLE('',#357,0.002);
#24=CIRCLE('',#359,0.0014);
#25=CIRCLE('',#360,0.0014);
#26=CIRCLE('',#362,0.005);
#27=CIRCLE('',#363,0.005);
#28=CIRCLE('',#365,0.0014);
#29=CIRCLE('',#366,0.0014);
#30=CIRCLE('',#369,0.004);
#31=CIRCLE('',#370,0.004);
#32=CYLINDRICAL_SURFACE('',#340,0.00499999999999992);
#33=CYLINDRICAL_SURFACE('',#344,0.005);
#34=CYLINDRICAL_SURFACE('',#348,0.005);
#35=CYLINDRICAL_SURFACE('',#352,0.002);
#36=CYLINDRICAL_SURFACE('',#355,0.002);
#37=CYLINDRICAL_SURFACE('',#358,0.0014);
#38=CYLINDRICAL_SURFACE('',#361,0.005);
#39=CYLINDRICAL_SURFACE('',#364,0.0014);
#40=ORIENTED_EDGE('',*,*,#120,.F.);
#41=ORIENTED_EDGE('',*,*,#121,.F.);
#42=ORIENTED_EDGE('',*,*,#122,.T.);
#43=ORIENTED_EDGE('',*,*,#123,.T.);
#44=ORIENTED_EDGE('',*,*,#124,.T.);
#45=ORIENTED_EDGE('',*,*,#125,.F.);
#46=ORIENTED_EDGE('',*,*,#126,.F.);
#47=ORIENTED_EDGE('',*,*,#121,.T.);
#48=ORIENTED_EDGE('',*,*,#127,.T.);
#49=ORIENTED_EDGE('',*,*,#128,.F.);
#50=ORIENTED_EDGE('',*,*,#129,.F.);
#51=ORIENTED_EDGE('',*,*,#125,.T.);
#52=ORIENTED_EDGE('',*,*,#130,.T.);
#53=ORIENTED_EDGE('',*,*,#131,.F.);
#54=ORIENTED_EDGE('',*,*,#132,.F.);
#55=ORIENTED_EDGE('',*,*,#128,.T.);
#56=ORIENTED_EDGE('',*,*,#133,.F.);
#57=ORIENTED_EDGE('',*,*,#134,.F.);
#58=ORIENTED_EDGE('',*,*,#135,.T.);
#59=ORIENTED_EDGE('',*,*,#131,.T.);
#60=ORIENTED_EDGE('',*,*,#136,.T.);
#61=ORIENTED_EDGE('',*,*,#137,.F.);
#62=ORIENTED_EDGE('',*,*,#138,.F.);
#63=ORIENTED_EDGE('',*,*,#134,.T.);
#64=ORIENTED_EDGE('',*,*,#139,.F.);
#65=ORIENTED_EDGE('',*,*,#140,.F.);
#66=ORIENTED_EDGE('',*,*,#141,.T.);
#67=ORIENTED_EDGE('',*,*,#137,.T.);
#68=ORIENTED_EDGE('',*,*,#142,.T.);
#69=ORIENTED_EDGE('',*,*,#143,.F.);
#70=ORIENTED_EDGE('',*,*,#144,.F.);
#71=ORIENTED_EDGE('',*,*,#140,.T.);
#72=ORIENTED_EDGE('',*,*,#145,.F.);
#73=ORIENTED_EDGE('',*,*,#146,.F.);
#74=ORIENTED_EDGE('',*,*,#147,.T.);
#75=ORIENTED_EDGE('',*,*,#143,.T.);
#76=ORIENTED_EDGE('',*,*,#148,.T.);
#77=ORIENTED_EDGE('',*,*,#149,.T.);
#78=ORIENTED_EDGE('',*,*,#150,.T.);
#79=ORIENTED_EDGE('',*,*,#151,.T.);
#80=ORIENTED_EDGE('',*,*,#152,.T.);
#81=ORIENTED_EDGE('',*,*,#153,.F.);
#82=ORIENTED_EDGE('',*,*,#154,.T.);
#83=ORIENTED_EDGE('',*,*,#123,.F.);
#84=ORIENTED_EDGE('',*,*,#155,.F.);
#85=ORIENTED_EDGE('',*,*,#146,.T.);
#86=ORIENTED_EDGE('',*,*,#156,.T.);
#87=ORIENTED_EDGE('',*,*,#157,.F.);
#88=ORIENTED_EDGE('',*,*,#122,.F.);
#89=ORIENTED_EDGE('',*,*,#126,.T.);
#90=ORIENTED_EDGE('',*,*,#129,.T.);
#91=ORIENTED_EDGE('',*,*,#132,.T.);
#92=ORIENTED_EDGE('',*,*,#135,.F.);
#93=ORIENTED_EDGE('',*,*,#138,.T.);
#94=ORIENTED_EDGE('',*,*,#141,.F.);
#95=ORIENTED_EDGE('',*,*,#144,.T.);
#96=ORIENTED_EDGE('',*,*,#147,.F.);
#97=ORIENTED_EDGE('',*,*,#155,.T.);
#98=ORIENTED_EDGE('',*,*,#152,.F.);
#99=ORIENTED_EDGE('',*,*,#151,.F.);
#100=ORIENTED_EDGE('',*,*,#149,.F.);
#101=ORIENTED_EDGE('',*,*,#156,.F.);
#102=ORIENTED_EDGE('',*,*,#158,.F.);
#103=ORIENTED_EDGE('',*,*,#159,.F.);
#104=ORIENTED_EDGE('',*,*,#120,.T.);
#105=ORIENTED_EDGE('',*,*,#154,.F.);
#106=ORIENTED_EDGE('',*,*,#145,.T.);
#107=ORIENTED_EDGE('',*,*,#142,.F.);
#108=ORIENTED_EDGE('',*,*,#139,.T.);
#109=ORIENTED_EDGE('',*,*,#136,.F.);
#110=ORIENTED_EDGE('',*,*,#133,.T.);
#111=ORIENTED_EDGE('',*,*,#130,.F.);
#112=ORIENTED_EDGE('',*,*,#127,.F.);
#113=ORIENTED_EDGE('',*,*,#124,.F.);
#114=ORIENTED_EDGE('',*,*,#153,.T.);
#115=ORIENTED_EDGE('',*,*,#157,.T.);
#116=ORIENTED_EDGE('',*,*,#159,.T.);
#117=ORIENTED_EDGE('',*,*,#148,.F.);
#118=ORIENTED_EDGE('',*,*,#158,.T.);
#119=ORIENTED_EDGE('',*,*,#150,.F.);
#120=EDGE_CURVE('',#160,#161,#190,.T.);
#121=EDGE_CURVE('',#162,#160,#191,.T.);
#122=EDGE_CURVE('',#162,#163,#192,.T.);
#123=EDGE_CURVE('',#163,#161,#193,.T.);
#124=EDGE_CURVE('',#160,#164,#194,.T.);
#125=EDGE_CURVE('',#165,#164,#195,.T.);
#126=EDGE_CURVE('',#162,#165,#196,.T.);
#127=EDGE_CURVE('',#164,#166,#197,.T.);
#128=EDGE_CURVE('',#167,#166,#198,.T.);
#129=EDGE_CURVE('',#165,#167,#199,.T.);
#130=EDGE_CURVE('',#166,#168,#14,.T.);
#131=EDGE_CURVE('',#169,#168,#200,.T.);
#132=EDGE_CURVE('',#167,#169,#15,.T.);
#133=EDGE_CURVE('',#170,#168,#201,.T.);
#134=EDGE_CURVE('',#171,#170,#202,.T.);
#135=EDGE_CURVE('',#171,#169,#203,.T.);
#136=EDGE_CURVE('',#170,#172,#16,.T.);
#137=EDGE_CURVE('',#173,#172,#204,.T.);
#138=EDGE_CURVE('',#171,#173,#17,.T.);
#139=EDGE_CURVE('',#174,#172,#205,.T.);
#140=EDGE_CURVE('',#175,#174,#206,.T.);
#141=EDGE_CURVE('',#175,#173,#207,.T.);
#142=EDGE_CURVE('',#174,#176,#18,.T.);
#143=EDGE_CURVE('',#177,#176,#208,.T.);
#144=EDGE_CURVE('',#175,#177,#19,.T.);
#145=EDGE_CURVE('',#178,#176,#209,.T.);
#146=EDGE_CURVE('',#179,#178,#210,.T.);
#147=EDGE_CURVE('',#179,#177,#211,.T.);
#148=EDGE_CURVE('',#180,#180,#20,.F.);
#149=EDGE_CURVE('',#181,#181,#21,.T.);
#150=EDGE_CURVE('',#182,#182,#22,.F.);
#151=EDGE_CURVE('',#183,#183,#23,.T.);
#152=EDGE_CURVE('',#184,#184,#24,.T.);
#153=EDGE_CURVE('',#185,#185,#25,.T.);
#154=EDGE_CURVE('',#178,#161,#26,.T.);
#155=EDGE_CURVE('',#179,#163,#27,.T.);
#156=EDGE_CURVE('',#186,#186,#28,.T.);
#157=EDGE_CURVE('',#187,#187,#29,.T.);
#158=EDGE_CURVE('',#188,#188,#30,.T.);
#159=EDGE_CURVE('',#189,#189,#31,.T.);
#160=VERTEX_POINT('',#472);
#161=VERTEX_POINT('',#473);
#162=VERTEX_POINT('',#475);
#163=VERTEX_POINT('',#477);
#164=VERTEX_POINT('',#481);
#165=VERTEX_POINT('',#483);
#166=VERTEX_POINT('',#487);
#167=VERTEX_POINT('',#489);
#168=VERTEX_POINT('',#493);
#169=VERTEX_POINT('',#495);
#170=VERTEX_POINT('',#499);
#171=VERTEX_POINT('',#501);
#172=VERTEX_POINT('',#505);
#173=VERTEX_POINT('',#507);
#174=VERTEX_POINT('',#511);
#175=VERTEX_POINT('',#513);
#176=VERTEX_POINT('',#517);
#177=VERTEX_POINT('',#519);
#178=VERTEX_POINT('',#523);
#179=VERTEX_POINT('',#525);
#180=VERTEX_POINT('',#529);
#181=VERTEX_POINT('',#531);
#182=VERTEX_POINT('',#534);
#183=VERTEX_POINT('',#536);
#184=VERTEX_POINT('',#539);
#185=VERTEX_POINT('',#541);
#186=VERTEX_POINT('',#547);
#187=VERTEX_POINT('',#549);
#188=VERTEX_POINT('',#553);
#189=VERTEX_POINT('',#555);
#190=LINE('',#471,#212);
#191=LINE('',#474,#213);
#192=LINE('',#476,#214);
#193=LINE('',#478,#215);
#194=LINE('',#480,#216);
#195=LINE('',#482,#217);
#196=LINE('',#484,#218);
#197=LINE('',#486,#219);
#198=LINE('',#488,#220);
#199=LINE('',#490,#221);
#200=LINE('',#494,#222);
#201=LINE('',#498,#223);
#202=LINE('',#500,#224);
#203=LINE('',#502,#225);
#204=LINE('',#506,#226);
#205=LINE('',#510,#227);
#206=LINE('',#512,#228);
#207=LINE('',#514,#229);
#208=LINE('',#518,#230);
#209=LINE('',#522,#231);
#210=LINE('',#524,#232);
#211=LINE('',#526,#233);
#212=VECTOR('',#377,1.);
#213=VECTOR('',#378,1.);
#214=VECTOR('',#379,1.);
#215=VECTOR('',#380,1.);
#216=VECTOR('',#383,1.);
#217=VECTOR('',#384,1.);
#218=VECTOR('',#385,1.);
#219=VECTOR('',#388,1.);
#220=VECTOR('',#389,1.);
#221=VECTOR('',#390,1.);
#222=VECTOR('',#395,1.);
#223=VECTOR('',#400,1.);
#224=VECTOR('',#401,1.);
#225=VECTOR('',#402,1.);
#226=VECTOR('',#407,1.);
#227=VECTOR('',#412,1.);
#228=VECTOR('',#413,1.);
#229=VECTOR('',#414,1.);
#230=VECTOR('',#419,1.);
#231=VECTOR('',#424,1.);
#232=VECTOR('',#425,1.);
#233=VECTOR('',#426,1.);
#234=EDGE_LOOP('',(#40,#41,#42,#43));
#235=EDGE_LOOP('',(#44,#45,#46,#47));
#236=EDGE_LOOP('',(#48,#49,#50,#51));
#237=EDGE_LOOP('',(#52,#53,#54,#55));
#238=EDGE_LOOP('',(#56,#57,#58,#59));
#239=EDGE_LOOP('',(#60,#61,#62,#63));
#240=EDGE_LOOP('',(#64,#65,#66,#67));
#241=EDGE_LOOP('',(#68,#69,#70,#71));
#242=EDGE_LOOP('',(#72,#73,#74,#75));
#243=EDGE_LOOP('',(#76));
#244=EDGE_LOOP('',(#77));
#245=EDGE_LOOP('',(#78));
#246=EDGE_LOOP('',(#79));
#247=EDGE_LOOP('',(#80));
#248=EDGE_LOOP('',(#81));
#249=EDGE_LOOP('',(#82,#83,#84,#85));
#250=EDGE_LOOP('',(#86));
#251=EDGE_LOOP('',(#87));
#252=EDGE_LOOP('',(#88,#89,#90,#91,#92,#93,#94,#95,#96,#97));
#253=EDGE_LOOP('',(#98));
#254=EDGE_LOOP('',(#99));
#255=EDGE_LOOP('',(#100));
#256=EDGE_LOOP('',(#101));
#257=EDGE_LOOP('',(#102));
#258=EDGE_LOOP('',(#103));
#259=EDGE_LOOP('',(#104,#105,#106,#107,#108,#109,#110,#111,#112,#113));
#260=EDGE_LOOP('',(#114));
#261=EDGE_LOOP('',(#115));
#262=EDGE_LOOP('',(#116));
#263=EDGE_LOOP('',(#117));
#264=EDGE_LOOP('',(#118));
#265=EDGE_LOOP('',(#119));
#266=FACE_BOUND('',#234,.T.);
#267=FACE_BOUND('',#235,.T.);
#268=FACE_BOUND('',#236,.T.);
#269=FACE_BOUND('',#237,.T.);
#270=FACE_BOUND('',#238,.T.);
#271=FACE_BOUND('',#239,.T.);
#272=FACE_BOUND('',#240,.T.);
#273=FACE_BOUND('',#241,.T.);
#274=FACE_BOUND('',#242,.T.);
#275=FACE_BOUND('',#243,.T.);
#276=FACE_BOUND('',#244,.T.);
#277=FACE_BOUND('',#245,.T.);
#278=FACE_BOUND('',#246,.T.);
#279=FACE_BOUND('',#247,.T.);
#280=FACE_BOUND('',#248,.T.);
#281=FACE_BOUND('',#249,.T.);
#282=FACE_BOUND('',#250,.T.);
#283=FACE_BOUND('',#251,.T.);
#284=FACE_BOUND('',#252,.T.);
#285=FACE_BOUND('',#253,.T.);
#286=FACE_BOUND('',#254,.T.);
#287=FACE_BOUND('',#255,.T.);
#288=FACE_BOUND('',#256,.T.);
#289=FACE_BOUND('',#257,.T.);
#290=FACE_BOUND('',#258,.T.);
#291=FACE_BOUND('',#259,.T.);
#292=FACE_BOUND('',#260,.T.);
#293=FACE_BOUND('',#261,.T.);
#294=FACE_BOUND('',#262,.T.);
#295=FACE_BOUND('',#263,.T.);
#296=FACE_BOUND('',#264,.T.);
#297=FACE_BOUND('',#265,.T.);
#298=PLANE('',#337);
#299=PLANE('',#338);
#300=PLANE('',#339);
#301=PLANE('',#343);
#302=PLANE('',#347);
#303=PLANE('',#351);
#304=PLANE('',#367);
#305=PLANE('',#368);
#306=ADVANCED_FACE('',(#266),#298,.T.);
#307=ADVANCED_FACE('',(#267),#299,.F.);
#308=ADVANCED_FACE('',(#268),#300,.F.);
#309=ADVANCED_FACE('',(#269),#32,.T.);
#310=ADVANCED_FACE('',(#270),#301,.T.);
#311=ADVANCED_FACE('',(#271),#33,.T.);
#312=ADVANCED_FACE('',(#272),#302,.T.);
#313=ADVANCED_FACE('',(#273),#34,.T.);
#314=ADVANCED_FACE('',(#274),#303,.T.);
#315=ADVANCED_FACE('',(#275,#276),#35,.F.);
#316=ADVANCED_FACE('',(#277,#278),#36,.F.);
#317=ADVANCED_FACE('',(#279,#280),#37,.F.);
#318=ADVANCED_FACE('',(#281),#38,.T.);
#319=ADVANCED_FACE('',(#282,#283),#39,.F.);
#320=ADVANCED_FACE('',(#284,#285,#286,#287,#288),#304,.T.);
#321=ADVANCED_FACE('',(#289,#290,#291,#292,#293),#305,.F.);
#322=ADVANCED_FACE('',(#294,#295),#12,.T.);
#323=ADVANCED_FACE('',(#296,#297),#13,.T.);
#324=CLOSED_SHELL('',(#306,#307,#308,#309,#310,#311,#312,#313,#314,#315,
#316,#317,#318,#319,#320,#321,#322,#323));
#325=STYLED_ITEM('',(#326),#333);
#326=PRESENTATION_STYLE_ASSIGNMENT((#327));
#327=SURFACE_STYLE_USAGE(.BOTH.,#328);
#328=SURFACE_SIDE_STYLE('',(#329));
#329=SURFACE_STYLE_FILL_AREA(#330);
#330=FILL_AREA_STYLE('',(#331));
#331=FILL_AREA_STYLE_COLOUR('',#332);
#332=COLOUR_RGB('',0.615686274509804,0.811764705882353,0.929411764705882);
#333=MANIFOLD_SOLID_BREP('SJato_Front_Body_Mount',#324);
#334=SHAPE_DEFINITION_REPRESENTATION(#564,#335);
#335=SHAPE_REPRESENTATION('SJato_Front_Body_Mount',(#336),#559);
#336=AXIS2_PLACEMENT_3D('',#469,#373,#374);
#337=AXIS2_PLACEMENT_3D('',#470,#375,#376);
#338=AXIS2_PLACEMENT_3D('',#479,#381,#382);
#339=AXIS2_PLACEMENT_3D('',#485,#386,#387);
#340=AXIS2_PLACEMENT_3D('',#491,#391,#392);
#341=AXIS2_PLACEMENT_3D('',#492,#393,#394);
#342=AXIS2_PLACEMENT_3D('',#496,#396,#397);
#343=AXIS2_PLACEMENT_3D('',#497,#398,#399);
#344=AXIS2_PLACEMENT_3D('',#503,#403,#404);
#345=AXIS2_PLACEMENT_3D('',#504,#405,#406);
#346=AXIS2_PLACEMENT_3D('',#508,#408,#409);
#347=AXIS2_PLACEMENT_3D('',#509,#410,#411);
#348=AXIS2_PLACEMENT_3D('',#515,#415,#416);
#349=AXIS2_PLACEMENT_3D('',#516,#417,#418);
#350=AXIS2_PLACEMENT_3D('',#520,#420,#421);
#351=AXIS2_PLACEMENT_3D('',#521,#422,#423);
#352=AXIS2_PLACEMENT_3D('',#527,#427,#428);
#353=AXIS2_PLACEMENT_3D('',#528,#429,#430);
#354=AXIS2_PLACEMENT_3D('',#530,#431,#432);
#355=AXIS2_PLACEMENT_3D('',#532,#433,#434);
#356=AXIS2_PLACEMENT_3D('',#533,#435,#436);
#357=AXIS2_PLACEMENT_3D('',#535,#437,#438);
#358=AXIS2_PLACEMENT_3D('',#537,#439,#440);
#359=AXIS2_PLACEMENT_3D('',#538,#441,#442);
#360=AXIS2_PLACEMENT_3D('',#540,#443,#444);
#361=AXIS2_PLACEMENT_3D('',#542,#445,#446);
#362=AXIS2_PLACEMENT_3D('',#543,#447,#448);
#363=AXIS2_PLACEMENT_3D('',#544,#449,#450);
#364=AXIS2_PLACEMENT_3D('',#545,#451,#452);
#365=AXIS2_PLACEMENT_3D('',#546,#453,#454);
#366=AXIS2_PLACEMENT_3D('',#548,#455,#456);
#367=AXIS2_PLACEMENT_3D('',#550,#457,#458);
#368=AXIS2_PLACEMENT_3D('',#551,#459,#460);
#369=AXIS2_PLACEMENT_3D('',#552,#461,#462);
#370=AXIS2_PLACEMENT_3D('',#554,#463,#464);
#371=AXIS2_PLACEMENT_3D('',#556,#465,#466);
#372=AXIS2_PLACEMENT_3D('',#557,#467,#468);
#373=DIRECTION('',(0.,0.,1.));
#374=DIRECTION('',(1.,0.,0.));
#375=DIRECTION('',(0.335009667654805,-0.942214690279141,0.));
#376=DIRECTION('',(0.942214690279141,0.335009667654805,0.));
#377=DIRECTION('',(-0.942214690279141,-0.335009667654805,0.));
#378=DIRECTION('',(0.,0.,-1.));
#379=DIRECTION('',(-0.942214690279141,-0.335009667654805,0.));
#380=DIRECTION('',(0.,0.,-1.));
#381=DIRECTION('',(0.,1.,0.));
#382=DIRECTION('',(0.,0.,1.));
#383=DIRECTION('',(1.,0.,0.));
#384=DIRECTION('',(0.,0.,-1.));
#385=DIRECTION('',(1.,0.,0.));
#386=DIRECTION('',(0.335009667654805,0.942214690279141,0.));
#387=DIRECTION('',(-0.942214690279141,0.335009667654805,0.));
#388=DIRECTION('',(0.942214690279141,-0.335009667654805,0.));
#389=DIRECTION('',(0.,0.,-1.));
#390=DIRECTION('',(0.942214690279141,-0.335009667654805,0.));
#391=DIRECTION('',(0.,0.,-1.));
#392=DIRECTION('',(-1.,0.,0.));
#393=DIRECTION('',(0.,0.,1.));
#394=DIRECTION('',(1.,0.,0.));
#395=DIRECTION('',(0.,0.,-1.));
#396=DIRECTION('',(0.,0.,1.));
#397=DIRECTION('',(1.,0.,0.));
#398=DIRECTION('',(0.335009667654805,0.942214690279141,0.));
#399=DIRECTION('',(-0.942214690279141,0.335009667654805,0.));
#400=DIRECTION('',(0.942214690279141,-0.335009667654805,0.));
#401=DIRECTION('',(0.,0.,-1.));
#402=DIRECTION('',(0.942214690279141,-0.335009667654805,0.));
#403=DIRECTION('',(0.,0.,-1.));
#404=DIRECTION('',(-1.,0.,0.));
#405=DIRECTION('',(0.,0.,1.));
#406=DIRECTION('',(1.,0.,0.));
#407=DIRECTION('',(0.,0.,-1.));
#408=DIRECTION('',(0.,0.,1.));
#409=DIRECTION('',(1.,0.,0.));
#410=DIRECTION('',(0.,1.,0.));
#411=DIRECTION('',(0.,0.,1.));
#412=DIRECTION('',(1.,0.,0.));
#413=DIRECTION('',(0.,0.,-1.));
#414=DIRECTION('',(1.,0.,0.));
#415=DIRECTION('',(0.,0.,-1.));
#416=DIRECTION('',(-1.,0.,0.));
#417=DIRECTION('',(0.,0.,1.));
#418=DIRECTION('',(1.,0.,0.));
#419=DIRECTION('',(0.,0.,-1.));
#420=DIRECTION('',(0.,0.,1.));
#421=DIRECTION('',(1.,0.,0.));
#422=DIRECTION('',(-0.335009667654805,0.942214690279141,0.));
#423=DIRECTION('',(-0.942214690279141,-0.335009667654805,0.));
#424=DIRECTION('',(0.942214690279141,0.335009667654805,0.));
#425=DIRECTION('',(0.,0.,-1.));
#426=DIRECTION('',(0.942214690279141,0.335009667654805,0.));
#427=DIRECTION('',(0.,0.,-1.));
#428=DIRECTION('',(-1.,0.,0.));
#429=DIRECTION('',(0.,0.,1.));
#430=DIRECTION('',(1.,0.,0.));
#431=DIRECTION('',(0.,0.,1.));
#432=DIRECTION('',(1.,0.,0.));
#433=DIRECTION('',(0.,0.,-1.));
#434=DIRECTION('',(-1.,0.,0.));
#435=DIRECTION('',(0.,0.,1.));
#436=DIRECTION('',(1.,0.,0.));
#437=DIRECTION('',(0.,0.,1.));
#438=DIRECTION('',(1.,0.,0.));
#439=DIRECTION('',(0.,0.,-1.));
#440=DIRECTION('',(-1.,0.,0.));
#441=DIRECTION('',(0.,0.,1.));
#442=DIRECTION('',(1.,0.,0.));
#443=DIRECTION('',(0.,0.,1.));
#444=DIRECTION('',(1.,0.,0.));
#445=DIRECTION('',(0.,0.,-1.));
#446=DIRECTION('',(-1.,0.,0.));
#447=DIRECTION('',(0.,0.,1.));
#448=DIRECTION('',(1.,0.,0.));
#449=DIRECTION('',(0.,0.,1.));
#450=DIRECTION('',(1.,0.,0.));
#451=DIRECTION('',(0.,0.,-1.));
#452=DIRECTION('',(-1.,0.,0.));
#453=DIRECTION('',(0.,0.,1.));
#454=DIRECTION('',(1.,0.,0.));
#455=DIRECTION('',(0.,0.,1.));
#456=DIRECTION('',(1.,0.,0.));
#457=DIRECTION('',(0.,0.,1.));
#458=DIRECTION('',(1.,0.,0.));
#459=DIRECTION('',(0.,0.,1.));
#460=DIRECTION('',(1.,0.,0.));
#461=DIRECTION('',(0.,0.,-1.));
#462=DIRECTION('',(-1.,0.,0.));
#463=DIRECTION('',(0.,0.,-1.));
#464=DIRECTION('',(-1.,0.,0.));
#465=DIRECTION('',(0.,0.,1.));
#466=DIRECTION('',(1.,0.,0.));
#467=DIRECTION('',(0.,0.,1.));
#468=DIRECTION('',(1.,0.,0.));
#469=CARTESIAN_POINT('',(0.,0.,0.));
#470=CARTESIAN_POINT('',(-0.0224812546207008,-0.00885553672569786,0.005));
#471=CARTESIAN_POINT('',(-0.0224812546207008,-0.00885553672569786,0.));
#472=CARTESIAN_POINT('',(-0.0116375575796756,-0.005,0.));
#473=CARTESIAN_POINT('',(-0.033324951661726,-0.0127110734513957,0.));
#474=CARTESIAN_POINT('',(-0.0116375575796756,-0.005,0.005));
#475=CARTESIAN_POINT('',(-0.0116375575796756,-0.005,0.005));
#476=CARTESIAN_POINT('',(-0.0224812546207008,-0.00885553672569786,0.005));
#477=CARTESIAN_POINT('',(-0.033324951661726,-0.0127110734513957,0.005));
#478=CARTESIAN_POINT('',(-0.033324951661726,-0.0127110734513957,0.005));
#479=CARTESIAN_POINT('',(-3.29597460435593E-17,-0.005,0.005));
#480=CARTESIAN_POINT('',(-3.29597460435593E-17,-0.005,0.));
#481=CARTESIAN_POINT('',(0.0116375575796755,-0.005,0.));
#482=CARTESIAN_POINT('',(0.0116375575796755,-0.005,0.005));
#483=CARTESIAN_POINT('',(0.0116375575796755,-0.005,0.005));
#484=CARTESIAN_POINT('',(-3.29597460435593E-17,-0.005,0.005));
#485=CARTESIAN_POINT('',(0.0224812546207008,-0.00885553672569784,0.005));
#486=CARTESIAN_POINT('',(0.0224812546207008,-0.00885553672569784,0.));
#487=CARTESIAN_POINT('',(0.033324951661726,-0.0127110734513957,0.));
#488=CARTESIAN_POINT('',(0.033324951661726,-0.0127110734513957,0.005));
#489=CARTESIAN_POINT('',(0.033324951661726,-0.0127110734513957,0.005));
#490=CARTESIAN_POINT('',(0.0224812546207008,-0.00885553672569784,0.005));
#491=CARTESIAN_POINT('',(0.035,-0.008,0.005));
#492=CARTESIAN_POINT('',(0.035,-0.008,0.));
#493=CARTESIAN_POINT('',(0.036675048338274,-0.00328892654860429,0.));
#494=CARTESIAN_POINT('',(0.036675048338274,-0.00328892654860429,0.005));
#495=CARTESIAN_POINT('',(0.036675048338274,-0.00328892654860429,0.005));
#496=CARTESIAN_POINT('',(0.035,-0.008,0.005));
#497=CARTESIAN_POINT('',(0.0274312212101623,-2.23245860898413E-6,0.005));
#498=CARTESIAN_POINT('',(0.0274312212101623,-2.23245860898413E-6,0.));
#499=CARTESIAN_POINT('',(0.014175048338274,0.0047110734513957,0.));
#500=CARTESIAN_POINT('',(0.014175048338274,0.0047110734513957,0.005));
#501=CARTESIAN_POINT('',(0.014175048338274,0.0047110734513957,0.005));
#502=CARTESIAN_POINT('',(0.0274312212101623,-2.23245860898413E-6,0.005));
#503=CARTESIAN_POINT('',(0.0125,4.33680868994202E-19,0.005));
#504=CARTESIAN_POINT('',(0.0125,4.33680868994202E-19,0.));
#505=CARTESIAN_POINT('',(0.0095,0.004,0.));
#506=CARTESIAN_POINT('',(0.0095,0.004,0.005));
#507=CARTESIAN_POINT('',(0.0095,0.004,0.005));
#508=CARTESIAN_POINT('',(0.0125,4.33680868994202E-19,0.005));
#509=CARTESIAN_POINT('',(0.,0.004,0.005));
#510=CARTESIAN_POINT('',(0.,0.004,0.));
#511=CARTESIAN_POINT('',(-0.0095,0.004,0.));
#512=CARTESIAN_POINT('',(-0.0095,0.004,0.005));
#513=CARTESIAN_POINT('',(-0.0095,0.004,0.005));
#514=CARTESIAN_POINT('',(0.,0.004,0.005));
#515=CARTESIAN_POINT('',(-0.0125,8.67361737988404E-19,0.005));
#516=CARTESIAN_POINT('',(-0.0125,8.67361737988404E-19,0.));
#517=CARTESIAN_POINT('',(-0.014175048338274,0.0047110734513957,0.));
#518=CARTESIAN_POINT('',(-0.014175048338274,0.0047110734513957,0.005));
#519=CARTESIAN_POINT('',(-0.014175048338274,0.0047110734513957,0.005));
#520=CARTESIAN_POINT('',(-0.0125,8.67361737988404E-19,0.005));
#521=CARTESIAN_POINT('',(-0.0274312212101622,-2.23245860898739E-6,0.005));
#522=CARTESIAN_POINT('',(-0.0274312212101622,-2.23245860898739E-6,0.));
#523=CARTESIAN_POINT('',(-0.036675048338274,-0.0032889265486043,0.));
#524=CARTESIAN_POINT('',(-0.036675048338274,-0.0032889265486043,0.005));
#525=CARTESIAN_POINT('',(-0.036675048338274,-0.0032889265486043,0.005));
#526=CARTESIAN_POINT('',(-0.0274312212101622,-2.23245860898739E-6,0.005));
#527=CARTESIAN_POINT('',(0.0125,4.71489017671731E-18,0.005));
#528=CARTESIAN_POINT('',(0.0125,4.46996081688784E-18,-0.002));
#529=CARTESIAN_POINT('',(0.0145,4.46996081688784E-18,-0.002));
#530=CARTESIAN_POINT('',(0.0125,4.71489017671731E-18,0.005));
#531=CARTESIAN_POINT('',(0.0145,4.71489017671731E-18,0.005));
#532=CARTESIAN_POINT('',(-0.0125,1.22464679914735E-19,0.005));
#533=CARTESIAN_POINT('',(-0.0125,-1.22464679914735E-19,-0.002));
#534=CARTESIAN_POINT('',(-0.0105,-1.22464679914735E-19,-0.002));
#535=CARTESIAN_POINT('',(-0.0125,1.22464679914735E-19,0.005));
#536=CARTESIAN_POINT('',(-0.0105,1.22464679914735E-19,0.005));
#537=CARTESIAN_POINT('',(-0.035,-0.008,0.005));
#538=CARTESIAN_POINT('',(-0.035,-0.008,0.005));
#539=CARTESIAN_POINT('',(-0.0336,-0.008,0.005));
#540=CARTESIAN_POINT('',(-0.035,-0.008,0.));
#541=CARTESIAN_POINT('',(-0.0336,-0.008,0.));
#542=CARTESIAN_POINT('',(-0.035,-0.008,0.005));
#543=CARTESIAN_POINT('',(-0.035,-0.008,0.));
#544=CARTESIAN_POINT('',(-0.035,-0.008,0.005));
#545=CARTESIAN_POINT('',(0.035,-0.008,0.005));
#546=CARTESIAN_POINT('',(0.035,-0.008,0.005));
#547=CARTESIAN_POINT('',(0.0364,-0.008,0.005));
#548=CARTESIAN_POINT('',(0.035,-0.008,0.));
#549=CARTESIAN_POINT('',(0.0364,-0.008,0.));
#550=CARTESIAN_POINT('',(0.,-0.004,0.005));
#551=CARTESIAN_POINT('',(0.,-0.004,0.));
#552=CARTESIAN_POINT('',(-0.0125,-1.22464679914735E-19,0.));
#553=CARTESIAN_POINT('',(-0.0165,-1.22464679914735E-19,0.));
#554=CARTESIAN_POINT('',(0.0125,4.46996081688784E-18,0.));
#555=CARTESIAN_POINT('',(0.0085,4.46996081688784E-18,0.));
#556=CARTESIAN_POINT('',(0.0125,4.46996081688784E-18,-0.0025));
#557=CARTESIAN_POINT('',(-0.0125,-1.22464679914735E-19,-0.0025));
#558=MECHANICAL_DESIGN_GEOMETRIC_PRESENTATION_REPRESENTATION('',(#325),
#559);
#559=(
GEOMETRIC_REPRESENTATION_CONTEXT(3)
GLOBAL_UNCERTAINTY_ASSIGNED_CONTEXT((#560))
GLOBAL_UNIT_ASSIGNED_CONTEXT((#563,#562,#561))
REPRESENTATION_CONTEXT('SJato_Front_Body_Mount',
'TOP_LEVEL_ASSEMBLY_PART')
);
#560=UNCERTAINTY_MEASURE_WITH_UNIT(LENGTH_MEASURE(1.E-8),#563,
'DISTANCE_ACCURACY_VALUE','Maximum Tolerance applied to model');
#561=(
NAMED_UNIT(*)
SI_UNIT($,.STERADIAN.)
SOLID_ANGLE_UNIT()
);
#562=(
NAMED_UNIT(*)
PLANE_ANGLE_UNIT()
SI_UNIT($,.RADIAN.)
);
#563=(
LENGTH_UNIT()
NAMED_UNIT(*)
SI_UNIT($,.METRE.)
);
#564=PRODUCT_DEFINITION_SHAPE('','',#565);
#565=PRODUCT_DEFINITION('','',#567,#566);
#566=PRODUCT_DEFINITION_CONTEXT('',#573,'design');
#567=PRODUCT_DEFINITION_FORMATION_WITH_SPECIFIED_SOURCE('','',#569,
 .NOT_KNOWN.);
#568=PRODUCT_RELATED_PRODUCT_CATEGORY('','',(#569));
#569=PRODUCT('SJato_Front_Body_Mount','SJato_Front_Body_Mount',
'SJato_Front_Body_Mount',(#571));
#570=PRODUCT_CATEGORY('','');
#571=PRODUCT_CONTEXT('',#573,'mechanical');
#572=APPLICATION_PROTOCOL_DEFINITION('international standard',
'ap242_managed_model_based_3d_engineering',2020,#573);
#573=APPLICATION_CONTEXT('managed model based 3d engineering');
ENDSEC;
END-ISO-10303-21;
