ISO-10303-21;
HEADER;
/* Generated by software containing ST-Developer
 * from STEP Tools, Inc. (www.steptools.com) 
 */
/* OPTION: using custom renumber hook */

FILE_DESCRIPTION(
/* description */ ('STEP AP242 Edition 2',
'CAx-IF Rec.Pracs.---Representation and Presentation of Product Manufa
cturing Information (PMI)---4.0---2014-10-13',
'CAx-IF Rec.Pracs.---3D Tessellated Geometry---0.4---2014-09-14','2;1',
'CAx-IF Rec.Pracs.---User Defined Attributes---1.5---2016-08-15'),
/* implementation_level */ '2;1');

FILE_NAME(
/* name */ 'Part Studio 1 - SJato_Front_Body_Post',
/* time_stamp */ '2026-09-15T23:49:08Z',
/* author */ (''),
/* organization */ (''),
/* preprocessor_version */ 'ST-DEVELOPER v20',
/* originating_system */ 'ONSHAPE BY PTC INC, 1.220',
/* authorisation */ '  ');

FILE_SCHEMA (('AP242_MANAGED_MODEL_BASED_3D_ENGINEERING_MIM_LF { 1 0 10303 442 3 1 4 }'));
ENDSEC;

DATA;
#10=SHAPE_REPRESENTATION_RELATIONSHIP('','',#144,#11);
#11=ADVANCED_BREP_SHAPE_REPRESENTATION('',(#142),#263);
#12=DEGENERATE_TOROIDAL_SURFACE('',#164,0.001,0.002,.T.);
#13=CONICAL_SURFACE('',#163,0.005,0.785398163397448);
#14=B_SPLINE_CURVE_WITH_KNOTS('',3,(#218,#219,#220,#221,#222,#223,#224,
#225,#226,#227,#228),.UNSPECIFIED.,.T.,.F.,(1,1,1,1,1,1,1,1,1,1,1,1,1,1,
1),(-0.0023615672299142,-0.00157437815327614,-0.000787189076638068,0.,0.000787189076638068,
0.00157437815327614,0.0023615672299142,0.00314875630655227,0.00393594538319034,
0.00472313445982841,0.00551032353646648,0.00629751261310455,0.00708470168974261,
0.00787189076638068,0.00865907984301875),.UNSPECIFIED.);
#15=B_SPLINE_CURVE_WITH_KNOTS('',3,(#230,#231,#232,#233,#234,#235,#236,
#237,#238,#239,#240),.UNSPECIFIED.,.T.,.F.,(1,1,1,1,1,1,1,1,1,1,1,1,1,1,
1),(-0.0023615672299142,-0.00157437815327614,-0.000787189076638068,0.,0.000787189076638068,
0.00157437815327614,0.00236156722991421,0.00314875630655227,0.00393594538319034,
0.00472313445982841,0.00551032353646648,0.00629751261310455,0.00708470168974261,
0.00787189076638068,0.00865907984301875),.UNSPECIFIED.);
#16=PLANE('',#149);
#17=PLANE('',#153);
#18=PLANE('',#161);
#19=PLANE('',#162);
#20=ORIENTED_EDGE('',*,*,#42,.F.);
#21=ORIENTED_EDGE('',*,*,#43,.T.);
#22=ORIENTED_EDGE('',*,*,#44,.T.);
#23=ORIENTED_EDGE('',*,*,#43,.F.);
#24=ORIENTED_EDGE('',*,*,#45,.F.);
#25=ORIENTED_EDGE('',*,*,#46,.F.);
#26=ORIENTED_EDGE('',*,*,#47,.T.);
#27=ORIENTED_EDGE('',*,*,#44,.F.);
#28=ORIENTED_EDGE('',*,*,#48,.T.);
#29=ORIENTED_EDGE('',*,*,#49,.F.);
#30=ORIENTED_EDGE('',*,*,#50,.F.);
#31=ORIENTED_EDGE('',*,*,#51,.T.);
#32=ORIENTED_EDGE('',*,*,#52,.T.);
#33=ORIENTED_EDGE('',*,*,#50,.T.);
#34=ORIENTED_EDGE('',*,*,#52,.F.);
#35=ORIENTED_EDGE('',*,*,#49,.T.);
#36=ORIENTED_EDGE('',*,*,#42,.T.);
#37=ORIENTED_EDGE('',*,*,#51,.F.);
#38=ORIENTED_EDGE('',*,*,#48,.F.);
#39=ORIENTED_EDGE('',*,*,#47,.F.);
#40=ORIENTED_EDGE('',*,*,#45,.T.);
#41=ORIENTED_EDGE('',*,*,#46,.T.);
#42=EDGE_CURVE('',#53,#53,#64,.T.);
#43=EDGE_CURVE('',#54,#54,#65,.T.);
#44=EDGE_CURVE('',#55,#55,#66,.T.);
#45=EDGE_CURVE('',#56,#56,#14,.T.);
#46=EDGE_CURVE('',#57,#57,#15,.T.);
#47=EDGE_CURVE('',#58,#58,#67,.T.);
#48=EDGE_CURVE('',#59,#59,#68,.F.);
#49=EDGE_CURVE('',#60,#60,#69,.T.);
#50=EDGE_CURVE('',#61,#61,#70,.T.);
#51=EDGE_CURVE('',#62,#62,#71,.T.);
#52=EDGE_CURVE('',#63,#63,#72,.T.);
#53=VERTEX_POINT('',#211);
#54=VERTEX_POINT('',#213);
#55=VERTEX_POINT('',#216);
#56=VERTEX_POINT('',#229);
#57=VERTEX_POINT('',#241);
#58=VERTEX_POINT('',#243);
#59=VERTEX_POINT('',#246);
#60=VERTEX_POINT('',#249);
#61=VERTEX_POINT('',#251);
#62=VERTEX_POINT('',#254);
#63=VERTEX_POINT('',#256);
#64=CIRCLE('',#147,0.01);
#65=CIRCLE('',#148,0.01);
#66=CIRCLE('',#150,0.003);
#67=CIRCLE('',#152,0.003);
#68=CIRCLE('',#154,0.001);
#69=CIRCLE('',#156,0.0014);
#70=CIRCLE('',#157,0.0014);
#71=CIRCLE('',#159,0.005);
#72=CIRCLE('',#160,0.005);
#73=EDGE_LOOP('',(#20));
#74=EDGE_LOOP('',(#21));
#75=EDGE_LOOP('',(#22));
#76=EDGE_LOOP('',(#23));
#77=EDGE_LOOP('',(#24));
#78=EDGE_LOOP('',(#25));
#79=EDGE_LOOP('',(#26));
#80=EDGE_LOOP('',(#27));
#81=EDGE_LOOP('',(#28));
#82=EDGE_LOOP('',(#29));
#83=EDGE_LOOP('',(#30));
#84=EDGE_LOOP('',(#31));
#85=EDGE_LOOP('',(#32));
#86=EDGE_LOOP('',(#33));
#87=EDGE_LOOP('',(#34));
#88=EDGE_LOOP('',(#35));
#89=EDGE_LOOP('',(#36));
#90=EDGE_LOOP('',(#37));
#91=EDGE_LOOP('',(#38));
#92=EDGE_LOOP('',(#39));
#93=EDGE_LOOP('',(#40));
#94=EDGE_LOOP('',(#41));
#95=FACE_BOUND('',#73,.T.);
#96=FACE_BOUND('',#74,.T.);
#97=FACE_BOUND('',#75,.T.);
#98=FACE_BOUND('',#76,.T.);
#99=FACE_BOUND('',#77,.T.);
#100=FACE_BOUND('',#78,.T.);
#101=FACE_BOUND('',#79,.T.);
#102=FACE_BOUND('',#80,.T.);
#103=FACE_BOUND('',#81,.T.);
#104=FACE_BOUND('',#82,.T.);
#105=FACE_BOUND('',#83,.T.);
#106=FACE_BOUND('',#84,.T.);
#107=FACE_BOUND('',#85,.T.);
#108=FACE_BOUND('',#86,.T.);
#109=FACE_BOUND('',#87,.T.);
#110=FACE_BOUND('',#88,.T.);
#111=FACE_BOUND('',#89,.T.);
#112=FACE_BOUND('',#90,.T.);
#113=FACE_BOUND('',#91,.T.);
#114=FACE_BOUND('',#92,.T.);
#115=FACE_BOUND('',#93,.T.);
#116=FACE_BOUND('',#94,.T.);
#117=CYLINDRICAL_SURFACE('',#146,0.01);
#118=CYLINDRICAL_SURFACE('',#151,0.003);
#119=CYLINDRICAL_SURFACE('',#155,0.0014);
#120=CYLINDRICAL_SURFACE('',#158,0.005);
#121=CYLINDRICAL_SURFACE('',#165,0.001);
#122=ADVANCED_FACE('',(#95,#96),#117,.T.);
#123=ADVANCED_FACE('',(#97,#98),#16,.F.);
#124=ADVANCED_FACE('',(#99,#100,#101,#102),#118,.T.);
#125=ADVANCED_FACE('',(#103),#17,.F.);
#126=ADVANCED_FACE('',(#104,#105),#119,.F.);
#127=ADVANCED_FACE('',(#106,#107),#120,.T.);
#128=ADVANCED_FACE('',(#108,#109),#18,.F.);
#129=ADVANCED_FACE('',(#110),#19,.T.);
#130=ADVANCED_FACE('',(#111,#112),#13,.T.);
#131=ADVANCED_FACE('',(#113,#114),#12,.T.);
#132=ADVANCED_FACE('',(#115,#116),#121,.F.);
#133=CLOSED_SHELL('',(#122,#123,#124,#125,#126,#127,#128,#129,#130,#131,
#132));
#134=STYLED_ITEM('',(#135),#142);
#135=PRESENTATION_STYLE_ASSIGNMENT((#136));
#136=SURFACE_STYLE_USAGE(.BOTH.,#137);
#137=SURFACE_SIDE_STYLE('',(#138));
#138=SURFACE_STYLE_FILL_AREA(#139);
#139=FILL_AREA_STYLE('',(#140));
#140=FILL_AREA_STYLE_COLOUR('',#141);
#141=COLOUR_RGB('',0.647058823529412,0.647058823529412,0.647058823529412);
#142=MANIFOLD_SOLID_BREP('SJato_Front_Body_Post',#133);
#143=SHAPE_DEFINITION_REPRESENTATION(#268,#144);
#144=SHAPE_REPRESENTATION('SJato_Front_Body_Post',(#145),#263);
#145=AXIS2_PLACEMENT_3D('',#208,#166,#167);
#146=AXIS2_PLACEMENT_3D('',#209,#168,#169);
#147=AXIS2_PLACEMENT_3D('',#210,#170,#171);
#148=AXIS2_PLACEMENT_3D('',#212,#172,#173);
#149=AXIS2_PLACEMENT_3D('',#214,#174,#175);
#150=AXIS2_PLACEMENT_3D('',#215,#176,#177);
#151=AXIS2_PLACEMENT_3D('',#217,#178,#179);
#152=AXIS2_PLACEMENT_3D('',#242,#180,#181);
#153=AXIS2_PLACEMENT_3D('',#244,#182,#183);
#154=AXIS2_PLACEMENT_3D('',#245,#184,#185);
#155=AXIS2_PLACEMENT_3D('',#247,#186,#187);
#156=AXIS2_PLACEMENT_3D('',#248,#188,#189);
#157=AXIS2_PLACEMENT_3D('',#250,#190,#191);
#158=AXIS2_PLACEMENT_3D('',#252,#192,#193);
#159=AXIS2_PLACEMENT_3D('',#253,#194,#195);
#160=AXIS2_PLACEMENT_3D('',#255,#196,#197);
#161=AXIS2_PLACEMENT_3D('',#257,#198,#199);
#162=AXIS2_PLACEMENT_3D('',#258,#200,#201);
#163=AXIS2_PLACEMENT_3D('',#259,#202,#203);
#164=AXIS2_PLACEMENT_3D('',#260,#204,#205);
#165=AXIS2_PLACEMENT_3D('',#261,#206,#207);
#166=DIRECTION('',(0.,0.,1.));
#167=DIRECTION('',(1.,0.,0.));
#168=DIRECTION('',(0.,0.,1.));
#169=DIRECTION('',(1.,0.,0.));
#170=DIRECTION('',(0.,0.,-1.));
#171=DIRECTION('',(-1.,0.,0.));
#172=DIRECTION('',(0.,0.,-1.));
#173=DIRECTION('',(-1.,0.,0.));
#174=DIRECTION('',(0.,0.,-1.));
#175=DIRECTION('',(1.,0.,0.));
#176=DIRECTION('',(0.,0.,-1.));
#177=DIRECTION('',(-1.,0.,0.));
#178=DIRECTION('',(0.,0.,-1.));
#179=DIRECTION('',(-1.,0.,0.));
#180=DIRECTION('',(0.,0.,-1.));
#181=DIRECTION('',(-1.,0.,0.));
#182=DIRECTION('',(0.,0.,-1.));
#183=DIRECTION('',(1.,0.,0.));
#184=DIRECTION('',(0.,0.,-1.));
#185=DIRECTION('',(-1.,0.,0.));
#186=DIRECTION('',(0.,0.,-1.));
#187=DIRECTION('',(-1.,0.,0.));
#188=DIRECTION('',(0.,0.,-1.));
#189=DIRECTION('',(-1.,0.,0.));
#190=DIRECTION('',(0.,0.,1.));
#191=DIRECTION('',(1.,0.,0.));
#192=DIRECTION('',(0.,0.,-1.));
#193=DIRECTION('',(-1.,0.,0.));
#194=DIRECTION('',(0.,0.,-1.));
#195=DIRECTION('',(-1.,0.,0.));
#196=DIRECTION('',(0.,0.,1.));
#197=DIRECTION('',(1.,0.,0.));
#198=DIRECTION('',(0.,0.,1.));
#199=DIRECTION('',(1.,0.,0.));
#200=DIRECTION('',(0.,0.,-1.));
#201=DIRECTION('',(1.,0.,0.));
#202=DIRECTION('',(0.,0.,1.));
#203=DIRECTION('',(1.,0.,0.));
#204=DIRECTION('',(0.,0.,-1.));
#205=DIRECTION('',(-1.,0.,0.));
#206=DIRECTION('',(1.,0.,0.));
#207=DIRECTION('',(0.,0.,-1.));
#208=CARTESIAN_POINT('',(0.,0.,0.));
#209=CARTESIAN_POINT('',(-0.035,-0.008,0.03));
#210=CARTESIAN_POINT('',(-0.035,-0.008,0.03));
#211=CARTESIAN_POINT('',(-0.045,-0.008,0.03));
#212=CARTESIAN_POINT('',(-0.035,-0.008,0.032));
#213=CARTESIAN_POINT('',(-0.045,-0.008,0.032));
#214=CARTESIAN_POINT('',(-0.035,-0.008,0.032));
#215=CARTESIAN_POINT('',(-0.035,-0.008,0.032));
#216=CARTESIAN_POINT('',(-0.038,-0.008,0.032));
#217=CARTESIAN_POINT('',(-0.035,-0.008,0.04));
#218=CARTESIAN_POINT('',(-0.0379166516802394,-0.00878392368853192,0.0367832446555051));
#219=CARTESIAN_POINT('',(-0.0380416792833393,-0.00800001737122568,0.0371084806854406));
#220=CARTESIAN_POINT('',(-0.0379166311864035,-0.00721600682656537,0.0367828326027327));
#221=CARTESIAN_POINT('',(-0.0377842941226824,-0.00689184076055419,0.036001355203713));
#222=CARTESIAN_POINT('',(-0.0379167555864942,-0.007216631588282,0.0352159280615228));
#223=CARTESIAN_POINT('',(-0.0380416189862558,-0.00799932111439621,0.0348919629733752));
#224=CARTESIAN_POINT('',(-0.0379167683078312,-0.00878367907250598,0.0352162205269311));
#225=CARTESIAN_POINT('',(-0.037784285691896,-0.00910809930466543,0.036000010313607));
#226=CARTESIAN_POINT('',(-0.0379166516802394,-0.00878392368853192,0.0367832446555051));
#227=CARTESIAN_POINT('',(-0.0380416792833393,-0.00800001737122568,0.0371084806854406));
#228=CARTESIAN_POINT('',(-0.0379166311864035,-0.00721600682656537,0.0367828326027327));
#229=CARTESIAN_POINT('',(-0.038,-0.008,0.037));
#230=CARTESIAN_POINT('',(-0.0320833483197606,-0.00878392368853192,0.0352167553444949));
#231=CARTESIAN_POINT('',(-0.0319583207166607,-0.00800001737122568,0.0348915193145594));
#232=CARTESIAN_POINT('',(-0.0320833688135966,-0.00721600682656537,0.0352171673972673));
#233=CARTESIAN_POINT('',(-0.0322157058773176,-0.00689184076055419,0.035998644796287));
#234=CARTESIAN_POINT('',(-0.0320832444135058,-0.00721663158828202,0.0367840719384773));
#235=CARTESIAN_POINT('',(-0.0319583810137442,-0.00799932111439623,0.0371080370266248));
#236=CARTESIAN_POINT('',(-0.0320832316921689,-0.008783679072506,0.0367837794730689));
#237=CARTESIAN_POINT('',(-0.032215714308104,-0.00910809930466542,0.0359999896863929));
#238=CARTESIAN_POINT('',(-0.0320833483197606,-0.00878392368853192,0.0352167553444949));
#239=CARTESIAN_POINT('',(-0.0319583207166607,-0.00800001737122568,0.0348915193145594));
#240=CARTESIAN_POINT('',(-0.0320833688135966,-0.00721600682656537,0.0352171673972673));
#241=CARTESIAN_POINT('',(-0.032,-0.008,0.035));
#242=CARTESIAN_POINT('',(-0.035,-0.008,0.038));
#243=CARTESIAN_POINT('',(-0.038,-0.008,0.038));
#244=CARTESIAN_POINT('',(-0.035,-0.008,0.04));
#245=CARTESIAN_POINT('',(-0.035,-0.008,0.04));
#246=CARTESIAN_POINT('',(-0.036,-0.008,0.04));
#247=CARTESIAN_POINT('',(-0.035,-0.008,0.030002));
#248=CARTESIAN_POINT('',(-0.035,-0.008,0.03));
#249=CARTESIAN_POINT('',(-0.0364,-0.008,0.03));
#250=CARTESIAN_POINT('',(-0.035,-0.008,0.005));
#251=CARTESIAN_POINT('',(-0.0336,-0.008,0.005));
#252=CARTESIAN_POINT('',(-0.035,-0.008,0.030002));
#253=CARTESIAN_POINT('',(-0.035,-0.008,0.025));
#254=CARTESIAN_POINT('',(-0.04,-0.008,0.025));
#255=CARTESIAN_POINT('',(-0.035,-0.008,0.005));
#256=CARTESIAN_POINT('',(-0.03,-0.008,0.005));
#257=CARTESIAN_POINT('',(-4.85722573273506E-17,-0.004,0.005));
#258=CARTESIAN_POINT('',(-0.035,-0.008,0.03));
#259=CARTESIAN_POINT('',(-0.035,-0.008,0.025));
#260=CARTESIAN_POINT('',(-0.035,-0.008,0.038));
#261=CARTESIAN_POINT('',(-0.0975702378020881,-0.008,0.036));
#262=MECHANICAL_DESIGN_GEOMETRIC_PRESENTATION_REPRESENTATION('',(#134),
#263);
#263=(
GEOMETRIC_REPRESENTATION_CONTEXT(3)
GLOBAL_UNCERTAINTY_ASSIGNED_CONTEXT((#264))
GLOBAL_UNIT_ASSIGNED_CONTEXT((#267,#266,#265))
REPRESENTATION_CONTEXT('SJato_Front_Body_Post',
'TOP_LEVEL_ASSEMBLY_PART')
);
#264=UNCERTAINTY_MEASURE_WITH_UNIT(LENGTH_MEASURE(2.E-5),#267,
'DISTANCE_ACCURACY_VALUE','Maximum Tolerance applied to model');
#265=(
NAMED_UNIT(*)
SI_UNIT($,.STERADIAN.)
SOLID_ANGLE_UNIT()
);
#266=(
NAMED_UNIT(*)
PLANE_ANGLE_UNIT()
SI_UNIT($,.RADIAN.)
);
#267=(
LENGTH_UNIT()
NAMED_UNIT(*)
SI_UNIT($,.METRE.)
);
#268=PRODUCT_DEFINITION_SHAPE('','',#269);
#269=PRODUCT_DEFINITION('','',#271,#270);
#270=PRODUCT_DEFINITION_CONTEXT('',#277,'design');
#271=PRODUCT_DEFINITION_FORMATION_WITH_SPECIFIED_SOURCE('','',#273,
 .NOT_KNOWN.);
#272=PRODUCT_RELATED_PRODUCT_CATEGORY('','',(#273));
#273=PRODUCT('SJato_Front_Body_Post','SJato_Front_Body_Post',
'SJato_Front_Body_Post',(#275));
#274=PRODUCT_CATEGORY('','');
#275=PRODUCT_CONTEXT('',#277,'mechanical');
#276=APPLICATION_PROTOCOL_DEFINITION('international standard',
'ap242_managed_model_based_3d_engineering',2020,#277);
#277=APPLICATION_CONTEXT('managed model based 3d engineering');
ENDSEC;
END-ISO-10303-21;
